<?xml version="1.0" encoding="UTF-8" standalone="no"?>
<!-- Created with Inkscape (http://www.inkscape.org/) -->

<svg
   width="800"
   height="400"
   viewBox="0 0 211.66666 105.83333"
   version="1.1"
   id="svg5"
   xml:space="preserve"
   inkscape:version="1.4.4 (dcaf3e7d9e, 2026-05-05)"
   sodipodi:docname="E5 clef and guides.svg"
   xmlns:inkscape="http://www.inkscape.org/namespaces/inkscape"
   xmlns:sodipodi="http://sodipodi.sourceforge.net/DTD/sodipodi-0.dtd"
   xmlns:xlink="http://www.w3.org/1999/xlink"
   xmlns="http://www.w3.org/2000/svg"
   xmlns:svg="http://www.w3.org/2000/svg"><sodipodi:namedview
     id="namedview7"
     pagecolor="#3f2954"
     bordercolor="#000000"
     borderopacity="0.25"
     inkscape:showpageshadow="2"
     inkscape:pageopacity="0"
     inkscape:pagecheckerboard="0"
     inkscape:deskcolor="#d1d1d1"
     inkscape:document-units="mm"
     showgrid="false"
     inkscape:zoom="1.3753496"
     inkscape:cx="407.1692"
     inkscape:cy="78.525488"
     inkscape:window-width="1920"
     inkscape:window-height="1131"
     inkscape:window-x="0"
     inkscape:window-y="0"
     inkscape:window-maximized="1"
     inkscape:current-layer="layer1" /><defs
     id="defs2"><symbol
       id="clef"
       viewBox="0 0 1000 1000"
       style="overflow:inherit"><path
         transform="scale(1,-1)"
         d="m 562,-21 c 0,89 -65,150 -155,150 7,-44 34,-203 55,-323 71,29 100,102 100,173 z M 420,-206 362,123 C 303,109 258,60 258,-1 c 0,-49 22,-75 61,-99 12,-8 22,-13 22,-22 0,-9 -9,-13 -17,-13 -80,0 -135,96 -135,166 0,94 62,190 153,217 -7,41 -14,88 -23,142 C 304,375 288,361 271,346 183,270 97,161 97,39 c 0,-151 122,-251 265,-251 19,0 38,2 58,6 z M 332,822 c -8,-31 -11,-65 -11,-102 0,-42 5,-81 11,-121 69,68 146,146 146,250 0,69 -24,118 -39,118 -52,0 -98,-105 -107,-145 z M 122,-513 c 0,66 45,123 115,123 75,0 116,-57 116,-111 0,-64 -47,-104 -94,-111 -3,-1 -5,-2 -5,-4 0,-1 2,-2 3,-3 2,0 23,-5 47,-5 101,0 154,55 154,159 0,53 -11,123 -30,219 -23,-4 -50,-7 -79,-7 -186,0 -349,147 -349,334 0,200 126,321 217,406 21,17 73,70 74,71 -17,112 -22,161 -22,215 0,84 18,212 82,288 33,39 64,51 71,51 18,0 47,-35 71,-86 16,-36 44,-110 44,-201 0,-159 -73,-284 -179,-395 9,-56 19,-115 29,-175 146,0 253,-102 253,-253 0,-103 -73,-205 -171,-237 6,-39 12,-69 15,-89 10,-57 16,-102 16,-141 0,-63 -14,-129 -68,-167 -36,-22 -77,-34 -124,-34 -135,0 -186,87 -186,153 z"
         id="path1775" /></symbol><symbol
       id="offset"
       viewBox="0 0 1000 1000"
       style="overflow:inherit"><path
         transform="scale(1,-1)"
         d="m 201,79 c 1,-8 2,-16 2,-25 0,-41 -15,-90 -53,-133 -54,-61 -119,-93 -123,-95 -2,-1 -6,-2 -8,-2 -8,0 -14,6 -14,14 L 0,439 c 0,8 6,14 14,14 h 12 c 8,0 14,-6 14,-14 L 36,118 c 5,6 34,37 84,37 51,0 75,-37 81,-76 z M 132,40 v 11 c 0,21 -3,55 -39,55 C 53,106 38,77 36,68 l -3,-195 c 19,15 53,42 70,68 25,38 29,84 29,99 z"
         id="path1778" /></symbol><symbol
       id="clef-3"
       viewBox="0 0 1000 1000"
       style="overflow:inherit"><path
         transform="scale(1,-1)"
         d="m 562,-21 c 0,89 -65,150 -155,150 7,-44 34,-203 55,-323 71,29 100,102 100,173 z M 420,-206 362,123 C 303,109 258,60 258,-1 c 0,-49 22,-75 61,-99 12,-8 22,-13 22,-22 0,-9 -9,-13 -17,-13 -80,0 -135,96 -135,166 0,94 62,190 153,217 -7,41 -14,88 -23,142 C 304,375 288,361 271,346 183,270 97,161 97,39 c 0,-151 122,-251 265,-251 19,0 38,2 58,6 z M 332,822 c -8,-31 -11,-65 -11,-102 0,-42 5,-81 11,-121 69,68 146,146 146,250 0,69 -24,118 -39,118 -52,0 -98,-105 -107,-145 z M 122,-513 c 0,66 45,123 115,123 75,0 116,-57 116,-111 0,-64 -47,-104 -94,-111 -3,-1 -5,-2 -5,-4 0,-1 2,-2 3,-3 2,0 23,-5 47,-5 101,0 154,55 154,159 0,53 -11,123 -30,219 -23,-4 -50,-7 -79,-7 -186,0 -349,147 -349,334 0,200 126,321 217,406 21,17 73,70 74,71 -17,112 -22,161 -22,215 0,84 18,212 82,288 33,39 64,51 71,51 18,0 47,-35 71,-86 16,-36 44,-110 44,-201 0,-159 -73,-284 -179,-395 9,-56 19,-115 29,-175 146,0 253,-102 253,-253 0,-103 -73,-205 -171,-237 6,-39 12,-69 15,-89 10,-57 16,-102 16,-141 0,-63 -14,-129 -68,-167 -36,-22 -77,-34 -124,-34 -135,0 -186,87 -186,153 z"
         id="path1775-5" /></symbol><symbol
       id="offset-6"
       viewBox="0 0 1000 1000"
       style="overflow:inherit"><path
         transform="scale(1,-1)"
         d="m 201,79 c 1,-8 2,-16 2,-25 0,-41 -15,-90 -53,-133 -54,-61 -119,-93 -123,-95 -2,-1 -6,-2 -8,-2 -8,0 -14,6 -14,14 L 0,439 c 0,8 6,14 14,14 h 12 c 8,0 14,-6 14,-14 L 36,118 c 5,6 34,37 84,37 51,0 75,-37 81,-76 z M 132,40 v 11 c 0,21 -3,55 -39,55 C 53,106 38,77 36,68 l -3,-195 c 19,15 53,42 70,68 25,38 29,84 29,99 z"
         id="path1778-2" /></symbol><symbol
       id="clef-7"
       viewBox="0 0 1000 1000"
       style="overflow:inherit"><path
         transform="scale(1,-1)"
         d="m 562,-21 c 0,89 -65,150 -155,150 7,-44 34,-203 55,-323 71,29 100,102 100,173 z M 420,-206 362,123 C 303,109 258,60 258,-1 c 0,-49 22,-75 61,-99 12,-8 22,-13 22,-22 0,-9 -9,-13 -17,-13 -80,0 -135,96 -135,166 0,94 62,190 153,217 -7,41 -14,88 -23,142 C 304,375 288,361 271,346 183,270 97,161 97,39 c 0,-151 122,-251 265,-251 19,0 38,2 58,6 z M 332,822 c -8,-31 -11,-65 -11,-102 0,-42 5,-81 11,-121 69,68 146,146 146,250 0,69 -24,118 -39,118 -52,0 -98,-105 -107,-145 z M 122,-513 c 0,66 45,123 115,123 75,0 116,-57 116,-111 0,-64 -47,-104 -94,-111 -3,-1 -5,-2 -5,-4 0,-1 2,-2 3,-3 2,0 23,-5 47,-5 101,0 154,55 154,159 0,53 -11,123 -30,219 -23,-4 -50,-7 -79,-7 -186,0 -349,147 -349,334 0,200 126,321 217,406 21,17 73,70 74,71 -17,112 -22,161 -22,215 0,84 18,212 82,288 33,39 64,51 71,51 18,0 47,-35 71,-86 16,-36 44,-110 44,-201 0,-159 -73,-284 -179,-395 9,-56 19,-115 29,-175 146,0 253,-102 253,-253 0,-103 -73,-205 -171,-237 6,-39 12,-69 15,-89 10,-57 16,-102 16,-141 0,-63 -14,-129 -68,-167 -36,-22 -77,-34 -124,-34 -135,0 -186,87 -186,153 z"
         id="path1775-0" /></symbol><symbol
       id="offset-9"
       viewBox="0 0 1000 1000"
       style="overflow:inherit"><path
         transform="scale(1,-1)"
         d="m 201,79 c 1,-8 2,-16 2,-25 0,-41 -15,-90 -53,-133 -54,-61 -119,-93 -123,-95 -2,-1 -6,-2 -8,-2 -8,0 -14,6 -14,14 L 0,439 c 0,8 6,14 14,14 h 12 c 8,0 14,-6 14,-14 L 36,118 c 5,6 34,37 84,37 51,0 75,-37 81,-76 z M 132,40 v 11 c 0,21 -3,55 -39,55 C 53,106 38,77 36,68 l -3,-195 c 19,15 53,42 70,68 25,38 29,84 29,99 z"
         id="path1778-3" /></symbol><symbol
       id="clef-2"
       viewBox="0 0 1000 1000"
       style="overflow:inherit"><path
         transform="scale(1,-1)"
         d="m 562,-21 c 0,89 -65,150 -155,150 7,-44 34,-203 55,-323 71,29 100,102 100,173 z M 420,-206 362,123 C 303,109 258,60 258,-1 c 0,-49 22,-75 61,-99 12,-8 22,-13 22,-22 0,-9 -9,-13 -17,-13 -80,0 -135,96 -135,166 0,94 62,190 153,217 -7,41 -14,88 -23,142 C 304,375 288,361 271,346 183,270 97,161 97,39 c 0,-151 122,-251 265,-251 19,0 38,2 58,6 z M 332,822 c -8,-31 -11,-65 -11,-102 0,-42 5,-81 11,-121 69,68 146,146 146,250 0,69 -24,118 -39,118 -52,0 -98,-105 -107,-145 z M 122,-513 c 0,66 45,123 115,123 75,0 116,-57 116,-111 0,-64 -47,-104 -94,-111 -3,-1 -5,-2 -5,-4 0,-1 2,-2 3,-3 2,0 23,-5 47,-5 101,0 154,55 154,159 0,53 -11,123 -30,219 -23,-4 -50,-7 -79,-7 -186,0 -349,147 -349,334 0,200 126,321 217,406 21,17 73,70 74,71 -17,112 -22,161 -22,215 0,84 18,212 82,288 33,39 64,51 71,51 18,0 47,-35 71,-86 16,-36 44,-110 44,-201 0,-159 -73,-284 -179,-395 9,-56 19,-115 29,-175 146,0 253,-102 253,-253 0,-103 -73,-205 -171,-237 6,-39 12,-69 15,-89 10,-57 16,-102 16,-141 0,-63 -14,-129 -68,-167 -36,-22 -77,-34 -124,-34 -135,0 -186,87 -186,153 z"
         id="path1775-3" /></symbol><symbol
       id="offset-7"
       viewBox="0 0 1000 1000"
       style="overflow:inherit"><path
         transform="scale(1,-1)"
         d="m 201,79 c 1,-8 2,-16 2,-25 0,-41 -15,-90 -53,-133 -54,-61 -119,-93 -123,-95 -2,-1 -6,-2 -8,-2 -8,0 -14,6 -14,14 L 0,439 c 0,8 6,14 14,14 h 12 c 8,0 14,-6 14,-14 L 36,118 c 5,6 34,37 84,37 51,0 75,-37 81,-76 z M 132,40 v 11 c 0,21 -3,55 -39,55 C 53,106 38,77 36,68 l -3,-195 c 19,15 53,42 70,68 25,38 29,84 29,99 z"
         id="path1778-5" /></symbol><symbol
       id="clef-93"
       viewBox="0 0 1000 1000"
       style="overflow:inherit"><path
         transform="scale(1,-1)"
         d="m 562,-21 c 0,89 -65,150 -155,150 7,-44 34,-203 55,-323 71,29 100,102 100,173 z M 420,-206 362,123 C 303,109 258,60 258,-1 c 0,-49 22,-75 61,-99 12,-8 22,-13 22,-22 0,-9 -9,-13 -17,-13 -80,0 -135,96 -135,166 0,94 62,190 153,217 -7,41 -14,88 -23,142 C 304,375 288,361 271,346 183,270 97,161 97,39 c 0,-151 122,-251 265,-251 19,0 38,2 58,6 z M 332,822 c -8,-31 -11,-65 -11,-102 0,-42 5,-81 11,-121 69,68 146,146 146,250 0,69 -24,118 -39,118 -52,0 -98,-105 -107,-145 z M 122,-513 c 0,66 45,123 115,123 75,0 116,-57 116,-111 0,-64 -47,-104 -94,-111 -3,-1 -5,-2 -5,-4 0,-1 2,-2 3,-3 2,0 23,-5 47,-5 101,0 154,55 154,159 0,53 -11,123 -30,219 -23,-4 -50,-7 -79,-7 -186,0 -349,147 -349,334 0,200 126,321 217,406 21,17 73,70 74,71 -17,112 -22,161 -22,215 0,84 18,212 82,288 33,39 64,51 71,51 18,0 47,-35 71,-86 16,-36 44,-110 44,-201 0,-159 -73,-284 -179,-395 9,-56 19,-115 29,-175 146,0 253,-102 253,-253 0,-103 -73,-205 -171,-237 6,-39 12,-69 15,-89 10,-57 16,-102 16,-141 0,-63 -14,-129 -68,-167 -36,-22 -77,-34 -124,-34 -135,0 -186,87 -186,153 z"
         id="path1775-6" /></symbol><symbol
       id="offset-0"
       viewBox="0 0 1000 1000"
       style="overflow:inherit"><path
         transform="scale(1,-1)"
         d="m 201,79 c 1,-8 2,-16 2,-25 0,-41 -15,-90 -53,-133 -54,-61 -119,-93 -123,-95 -2,-1 -6,-2 -8,-2 -8,0 -14,6 -14,14 L 0,439 c 0,8 6,14 14,14 h 12 c 8,0 14,-6 14,-14 L 36,118 c 5,6 34,37 84,37 51,0 75,-37 81,-76 z M 132,40 v 11 c 0,21 -3,55 -39,55 C 53,106 38,77 36,68 l -3,-195 c 19,15 53,42 70,68 25,38 29,84 29,99 z"
         id="path1778-62" /></symbol><symbol
       id="clef-7-6"
       viewBox="0 0 1000 1000"
       style="overflow:inherit"><path
         transform="scale(1,-1)"
         d="m 562,-21 c 0,89 -65,150 -155,150 7,-44 34,-203 55,-323 71,29 100,102 100,173 z M 420,-206 362,123 C 303,109 258,60 258,-1 c 0,-49 22,-75 61,-99 12,-8 22,-13 22,-22 0,-9 -9,-13 -17,-13 -80,0 -135,96 -135,166 0,94 62,190 153,217 -7,41 -14,88 -23,142 C 304,375 288,361 271,346 183,270 97,161 97,39 c 0,-151 122,-251 265,-251 19,0 38,2 58,6 z M 332,822 c -8,-31 -11,-65 -11,-102 0,-42 5,-81 11,-121 69,68 146,146 146,250 0,69 -24,118 -39,118 -52,0 -98,-105 -107,-145 z M 122,-513 c 0,66 45,123 115,123 75,0 116,-57 116,-111 0,-64 -47,-104 -94,-111 -3,-1 -5,-2 -5,-4 0,-1 2,-2 3,-3 2,0 23,-5 47,-5 101,0 154,55 154,159 0,53 -11,123 -30,219 -23,-4 -50,-7 -79,-7 -186,0 -349,147 -349,334 0,200 126,321 217,406 21,17 73,70 74,71 -17,112 -22,161 -22,215 0,84 18,212 82,288 33,39 64,51 71,51 18,0 47,-35 71,-86 16,-36 44,-110 44,-201 0,-159 -73,-284 -179,-395 9,-56 19,-115 29,-175 146,0 253,-102 253,-253 0,-103 -73,-205 -171,-237 6,-39 12,-69 15,-89 10,-57 16,-102 16,-141 0,-63 -14,-129 -68,-167 -36,-22 -77,-34 -124,-34 -135,0 -186,87 -186,153 z"
         id="path1775-0-1" /></symbol><symbol
       id="offset-9-8"
       viewBox="0 0 1000 1000"
       style="overflow:inherit"><path
         transform="scale(1,-1)"
         d="m 201,79 c 1,-8 2,-16 2,-25 0,-41 -15,-90 -53,-133 -54,-61 -119,-93 -123,-95 -2,-1 -6,-2 -8,-2 -8,0 -14,6 -14,14 L 0,439 c 0,8 6,14 14,14 h 12 c 8,0 14,-6 14,-14 L 36,118 c 5,6 34,37 84,37 51,0 75,-37 81,-76 z M 132,40 v 11 c 0,21 -3,55 -39,55 C 53,106 38,77 36,68 l -3,-195 c 19,15 53,42 70,68 25,38 29,84 29,99 z"
         id="path1778-3-7" /></symbol><symbol
       id="clef-2-9"
       viewBox="0 0 1000 1000"
       style="overflow:inherit"><path
         transform="scale(1,-1)"
         d="m 562,-21 c 0,89 -65,150 -155,150 7,-44 34,-203 55,-323 71,29 100,102 100,173 z M 420,-206 362,123 C 303,109 258,60 258,-1 c 0,-49 22,-75 61,-99 12,-8 22,-13 22,-22 0,-9 -9,-13 -17,-13 -80,0 -135,96 -135,166 0,94 62,190 153,217 -7,41 -14,88 -23,142 C 304,375 288,361 271,346 183,270 97,161 97,39 c 0,-151 122,-251 265,-251 19,0 38,2 58,6 z M 332,822 c -8,-31 -11,-65 -11,-102 0,-42 5,-81 11,-121 69,68 146,146 146,250 0,69 -24,118 -39,118 -52,0 -98,-105 -107,-145 z M 122,-513 c 0,66 45,123 115,123 75,0 116,-57 116,-111 0,-64 -47,-104 -94,-111 -3,-1 -5,-2 -5,-4 0,-1 2,-2 3,-3 2,0 23,-5 47,-5 101,0 154,55 154,159 0,53 -11,123 -30,219 -23,-4 -50,-7 -79,-7 -186,0 -349,147 -349,334 0,200 126,321 217,406 21,17 73,70 74,71 -17,112 -22,161 -22,215 0,84 18,212 82,288 33,39 64,51 71,51 18,0 47,-35 71,-86 16,-36 44,-110 44,-201 0,-159 -73,-284 -179,-395 9,-56 19,-115 29,-175 146,0 253,-102 253,-253 0,-103 -73,-205 -171,-237 6,-39 12,-69 15,-89 10,-57 16,-102 16,-141 0,-63 -14,-129 -68,-167 -36,-22 -77,-34 -124,-34 -135,0 -186,87 -186,153 z"
         id="path1775-3-2" /></symbol><symbol
       id="offset-7-0"
       viewBox="0 0 1000 1000"
       style="overflow:inherit"><path
         transform="scale(1,-1)"
         d="m 201,79 c 1,-8 2,-16 2,-25 0,-41 -15,-90 -53,-133 -54,-61 -119,-93 -123,-95 -2,-1 -6,-2 -8,-2 -8,0 -14,6 -14,14 L 0,439 c 0,8 6,14 14,14 h 12 c 8,0 14,-6 14,-14 L 36,118 c 5,6 34,37 84,37 51,0 75,-37 81,-76 z M 132,40 v 11 c 0,21 -3,55 -39,55 C 53,106 38,77 36,68 l -3,-195 c 19,15 53,42 70,68 25,38 29,84 29,99 z"
         id="path1778-5-2" /></symbol><symbol
       id="clef-9"
       viewBox="0 0 1000 1000"
       style="overflow:inherit"><path
         transform="scale(1,-1)"
         d="m 562,-21 c 0,89 -65,150 -155,150 7,-44 34,-203 55,-323 71,29 100,102 100,173 z M 420,-206 362,123 C 303,109 258,60 258,-1 c 0,-49 22,-75 61,-99 12,-8 22,-13 22,-22 0,-9 -9,-13 -17,-13 -80,0 -135,96 -135,166 0,94 62,190 153,217 -7,41 -14,88 -23,142 C 304,375 288,361 271,346 183,270 97,161 97,39 c 0,-151 122,-251 265,-251 19,0 38,2 58,6 z M 332,822 c -8,-31 -11,-65 -11,-102 0,-42 5,-81 11,-121 69,68 146,146 146,250 0,69 -24,118 -39,118 -52,0 -98,-105 -107,-145 z M 122,-513 c 0,66 45,123 115,123 75,0 116,-57 116,-111 0,-64 -47,-104 -94,-111 -3,-1 -5,-2 -5,-4 0,-1 2,-2 3,-3 2,0 23,-5 47,-5 101,0 154,55 154,159 0,53 -11,123 -30,219 -23,-4 -50,-7 -79,-7 -186,0 -349,147 -349,334 0,200 126,321 217,406 21,17 73,70 74,71 -17,112 -22,161 -22,215 0,84 18,212 82,288 33,39 64,51 71,51 18,0 47,-35 71,-86 16,-36 44,-110 44,-201 0,-159 -73,-284 -179,-395 9,-56 19,-115 29,-175 146,0 253,-102 253,-253 0,-103 -73,-205 -171,-237 6,-39 12,-69 15,-89 10,-57 16,-102 16,-141 0,-63 -14,-129 -68,-167 -36,-22 -77,-34 -124,-34 -135,0 -186,87 -186,153 z"
         id="path1775-7" /></symbol><symbol
       id="offset-3"
       viewBox="0 0 1000 1000"
       style="overflow:inherit"><path
         transform="scale(1,-1)"
         d="m 201,79 c 1,-8 2,-16 2,-25 0,-41 -15,-90 -53,-133 -54,-61 -119,-93 -123,-95 -2,-1 -6,-2 -8,-2 -8,0 -14,6 -14,14 L 0,439 c 0,8 6,14 14,14 h 12 c 8,0 14,-6 14,-14 L 36,118 c 5,6 34,37 84,37 51,0 75,-37 81,-76 z M 132,40 v 11 c 0,21 -3,55 -39,55 C 53,106 38,77 36,68 l -3,-195 c 19,15 53,42 70,68 25,38 29,84 29,99 z"
         id="path1778-6" /></symbol></defs><g
     inkscape:label="Layer 1"
     inkscape:groupmode="layer"
     id="layer1"><g
       id="g2359"
       transform="matrix(4.3921624,0,0,1.9206939,-29.410878,0.85235193)"
       style="fill:#ffffff;fill-opacity:1;stroke:#979797;stroke-width:0.25624;stroke-linecap:round;stroke-linejoin:round;stroke-dasharray:none;stroke-opacity:1"><g
         id="polyline1783"
         transform="matrix(0.02645833,0,0,0.02645833,8.0380059,2.7838617)"
         style="fill:#ffffff;fill-opacity:1;stroke:#979797;stroke-width:9.68464;stroke-linecap:round;stroke-linejoin:round;stroke-dasharray:none;stroke-opacity:1"><path
           style="color:#000000;fill:#ffffff;fill-opacity:1;stroke:#979797;stroke-width:9.68464;stroke-linecap:round;stroke-linejoin:round;stroke-dasharray:none;stroke-opacity:1"
           d="M 0,540 H 1720"
           id="path2379" /><path
           style="color:#000000;fill:#ffffff;fill-opacity:1;stroke:#979797;stroke-width:9.68464;stroke-linecap:round;stroke-linejoin:round;stroke-dasharray:none;stroke-opacity:1"
           d="m 0,530 v 20 h 1720 v -20 z"
           id="path2381" /></g><g
         id="polyline1785"
         transform="matrix(0.02645833,0,0,0.02645833,8.0380059,2.7838617)"
         style="fill:#ffffff;fill-opacity:1;stroke:#979797;stroke-width:9.68464;stroke-linecap:round;stroke-linejoin:round;stroke-dasharray:none;stroke-opacity:1"><path
           style="color:#000000;fill:#ffffff;fill-opacity:1;stroke:#979797;stroke-width:9.68464;stroke-linecap:round;stroke-linejoin:round;stroke-dasharray:none;stroke-opacity:1"
           d="M 0,720 H 1720"
           id="path2385" /><path
           style="color:#000000;fill:#ffffff;fill-opacity:1;stroke:#979797;stroke-width:9.68464;stroke-linecap:round;stroke-linejoin:round;stroke-dasharray:none;stroke-opacity:1"
           d="m 0,710 v 20 h 1720 v -20 z"
           id="path2387" /></g><g
         id="polyline1787"
         transform="matrix(0.02645833,0,0,0.02645833,8.0380059,2.7838617)"
         style="fill:#ffffff;fill-opacity:1;stroke:#979797;stroke-width:9.68464;stroke-linecap:round;stroke-linejoin:round;stroke-dasharray:none;stroke-opacity:1"><path
           style="color:#000000;fill:#ffffff;fill-opacity:1;stroke:#979797;stroke-width:9.68464;stroke-linecap:round;stroke-linejoin:round;stroke-dasharray:none;stroke-opacity:1"
           d="M 0,900 H 1720"
           id="path2391" /><path
           style="color:#000000;fill:#ffffff;fill-opacity:1;stroke:#979797;stroke-width:9.68464;stroke-linecap:round;stroke-linejoin:round;stroke-dasharray:none;stroke-opacity:1"
           d="m 0,890 v 20 h 1720 v -20 z"
           id="path2393" /></g><g
         id="polyline1789"
         transform="matrix(0.02645833,0,0,0.02645833,8.0380059,2.7838617)"
         style="fill:#ffffff;fill-opacity:1;stroke:#979797;stroke-width:9.68464;stroke-linecap:round;stroke-linejoin:round;stroke-dasharray:none;stroke-opacity:1"><path
           style="color:#000000;fill:#ffffff;fill-opacity:1;stroke:#979797;stroke-width:9.68464;stroke-linecap:round;stroke-linejoin:round;stroke-dasharray:none;stroke-opacity:1"
           d="M 0,1080 H 1720"
           id="path2397" /><path
           style="color:#000000;fill:#ffffff;fill-opacity:1;stroke:#979797;stroke-width:9.68464;stroke-linecap:round;stroke-linejoin:round;stroke-dasharray:none;stroke-opacity:1"
           d="m 0,1070 v 20 h 1720 v -20 z"
           id="path2399" /></g><g
         id="polyline1791"
         transform="matrix(0.02645833,0,0,0.02645833,8.0380059,2.7838617)"
         style="fill:#ffffff;fill-opacity:1;stroke:#979797;stroke-width:9.68464;stroke-linecap:round;stroke-linejoin:round;stroke-dasharray:none;stroke-opacity:1"><path
           style="color:#000000;fill:#ffffff;fill-opacity:1;stroke:#979797;stroke-width:9.68464;stroke-linecap:round;stroke-linejoin:round;stroke-dasharray:none;stroke-opacity:1"
           d="M 0,1260 H 1720"
           id="path2403" /><path
           style="color:#000000;fill:#ffffff;fill-opacity:1;stroke:#979797;stroke-width:9.68464;stroke-linecap:round;stroke-linejoin:round;stroke-dasharray:none;stroke-opacity:1"
           d="m 0,1250 v 20 h 1720 v -20 z"
           id="path2405" /></g></g><use
       xlink:href="#clef"
       x="80"
       y="1080"
       height="720"
       width="720"
       id="use1793"
       transform="matrix(0.05045537,0,0,0.05045537,6.2729597,6.525985)"
       style="fill:#ffffff;fill-opacity:1;stroke:#979797;stroke-width:20;stroke-linecap:round;stroke-linejoin:round;stroke-dasharray:none;stroke-opacity:1" /><path
       style="fill:#d7c255;fill-opacity:1;stroke:#d8dc86;stroke-width:0.528849;stroke-dasharray:none;stroke-opacity:1"
       d="M 47.526702,57.12093 V 40.788028 l -0.03907,-0.148607 c -0.0849,-0.322931 -0.09553,-0.421482 -0.09588,-0.888534 -3.37e-4,-0.46552 0.01103,-0.578306 0.09649,-0.961672 0.32212,-1.444123 1.341863,-2.938913 2.799244,-4.103268 2.603606,-2.080117 5.988532,-2.664873 7.932927,-1.370437 0.775047,0.51597 1.256765,1.315338 1.369287,2.272217 0.02793,0.237532 0.01035,0.826906 -0.03219,1.076157 -0.267211,1.567463 -1.294293,3.147848 -2.857337,4.396622 -2.538485,2.028089 -5.837683,2.642263 -7.805023,1.452969 l -0.119343,-0.07214 -0.0039,11.435063 c -0.0022,6.289284 -0.0015,11.437524 0.0015,11.440535 0.0082,0.0082 0.434706,-0.200141 0.829802,-0.405406 1.953289,-1.014797 3.865128,-2.314854 5.314881,-3.614139 0.31423,-0.281614 0.873977,-0.842158 1.129306,-1.13091 0.703578,-0.795679 1.241337,-1.595575 1.615348,-2.40277 0.252961,-0.545938 0.462562,-1.176434 0.563377,-1.694668 0.102233,-0.525505 0.133245,-1.617051 0.06625,-2.331164 -0.22146,-2.360226 -1.200023,-4.632874 -2.826287,-6.563858 -0.147745,-0.175428 -0.44124,-0.483046 -0.835003,-0.87518 -0.333951,-0.33257 -0.663263,-0.672697 -0.731805,-0.755838 -0.196673,-0.238568 -0.30986,-0.432621 -0.30986,-0.531241 0,-0.06242 0.05815,-0.121168 0.119909,-0.121168 0.210869,0 0.790441,0.407521 1.422347,1.000111 0.264571,0.248112 0.967836,1.020458 1.311413,1.440233 1.81976,2.223349 2.872821,4.793419 3.035465,7.40826 0.02086,0.335263 0.01046,1.435309 -0.01614,1.711741 -0.128091,1.33022 -0.456599,2.546848 -1.001099,3.707586 -0.14438,0.307781 -0.469393,0.924873 -0.6118,1.161605 -0.341204,0.5672 -0.800512,1.171353 -1.372003,1.804668 -0.281149,0.311564 -1.170435,1.228489 -1.405722,1.449413 -0.09787,0.09189 -0.448168,0.446134 -0.778444,0.787197 -0.330275,0.341067 -0.948278,0.974777 -1.373338,1.408247 -0.866349,0.883489 -1.067149,1.092439 -1.445904,1.504602 -1.699673,1.849591 -2.636978,3.373068 -3.039525,4.940378 l -0.05926,0.230729 -0.42426,0.0042 -0.424259,0.0042 z"
       id="path4" /><text
       xml:space="preserve"
       style="font-size:6.72166px;font-family:'DM Serif Display';-inkscape-font-specification:'DM Serif Display';fill:#ffffff;fill-opacity:1;stroke:none;stroke-width:1.12028;stroke-linecap:round;stroke-linejoin:round;stroke-dasharray:none;stroke-opacity:1"
       x="49.633595"
       y="55.130219"
       id="text6352"
       transform="skewY(-15.744794)"><tspan
         sodipodi:role="line"
         id="tspan6350"
         style="stroke:none;stroke-width:1.12028"
         x="49.633595"
         y="55.130219">E5</tspan></text></g></svg>
