<?xml version="1.0" encoding="UTF-8" standalone="no"?>
<!-- Created with Inkscape (http://www.inkscape.org/) -->

<svg
   width="800"
   height="400"
   viewBox="0 0 211.66666 105.83333"
   version="1.1"
   id="svg5"
   xml:space="preserve"
   inkscape:version="1.4.4 (dcaf3e7d9e, 2026-05-05)"
   sodipodi:docname="NoteCanvasBG.svg"
   xmlns:inkscape="http://www.inkscape.org/namespaces/inkscape"
   xmlns:sodipodi="http://sodipodi.sourceforge.net/DTD/sodipodi-0.dtd"
   xmlns:xlink="http://www.w3.org/1999/xlink"
   xmlns="http://www.w3.org/2000/svg"
   xmlns:svg="http://www.w3.org/2000/svg"><sodipodi:namedview
     id="namedview7"
     pagecolor="#3f2954"
     bordercolor="#000000"
     borderopacity="0.25"
     inkscape:showpageshadow="2"
     inkscape:pageopacity="0"
     inkscape:pagecheckerboard="0"
     inkscape:deskcolor="#d1d1d1"
     inkscape:document-units="mm"
     showgrid="false"
     inkscape:zoom="0.98898724"
     inkscape:cx="403.44302"
     inkscape:cy="110.21376"
     inkscape:window-width="1920"
     inkscape:window-height="1131"
     inkscape:window-x="0"
     inkscape:window-y="0"
     inkscape:window-maximized="1"
     inkscape:current-layer="layer1" /><defs
     id="defs2"><symbol
       id="clef"
       viewBox="0 0 1000 1000"
       style="overflow:inherit"><path
         transform="scale(1,-1)"
         d="m 562,-21 c 0,89 -65,150 -155,150 7,-44 34,-203 55,-323 71,29 100,102 100,173 z M 420,-206 362,123 C 303,109 258,60 258,-1 c 0,-49 22,-75 61,-99 12,-8 22,-13 22,-22 0,-9 -9,-13 -17,-13 -80,0 -135,96 -135,166 0,94 62,190 153,217 -7,41 -14,88 -23,142 C 304,375 288,361 271,346 183,270 97,161 97,39 c 0,-151 122,-251 265,-251 19,0 38,2 58,6 z M 332,822 c -8,-31 -11,-65 -11,-102 0,-42 5,-81 11,-121 69,68 146,146 146,250 0,69 -24,118 -39,118 -52,0 -98,-105 -107,-145 z M 122,-513 c 0,66 45,123 115,123 75,0 116,-57 116,-111 0,-64 -47,-104 -94,-111 -3,-1 -5,-2 -5,-4 0,-1 2,-2 3,-3 2,0 23,-5 47,-5 101,0 154,55 154,159 0,53 -11,123 -30,219 -23,-4 -50,-7 -79,-7 -186,0 -349,147 -349,334 0,200 126,321 217,406 21,17 73,70 74,71 -17,112 -22,161 -22,215 0,84 18,212 82,288 33,39 64,51 71,51 18,0 47,-35 71,-86 16,-36 44,-110 44,-201 0,-159 -73,-284 -179,-395 9,-56 19,-115 29,-175 146,0 253,-102 253,-253 0,-103 -73,-205 -171,-237 6,-39 12,-69 15,-89 10,-57 16,-102 16,-141 0,-63 -14,-129 -68,-167 -36,-22 -77,-34 -124,-34 -135,0 -186,87 -186,153 z"
         id="path1775" /></symbol><symbol
       id="offset"
       viewBox="0 0 1000 1000"
       style="overflow:inherit"><path
         transform="scale(1,-1)"
         d="m 201,79 c 1,-8 2,-16 2,-25 0,-41 -15,-90 -53,-133 -54,-61 -119,-93 -123,-95 -2,-1 -6,-2 -8,-2 -8,0 -14,6 -14,14 L 0,439 c 0,8 6,14 14,14 h 12 c 8,0 14,-6 14,-14 L 36,118 c 5,6 34,37 84,37 51,0 75,-37 81,-76 z M 132,40 v 11 c 0,21 -3,55 -39,55 C 53,106 38,77 36,68 l -3,-195 c 19,15 53,42 70,68 25,38 29,84 29,99 z"
         id="path1778" /></symbol></defs><g
     inkscape:label="Layer 1"
     inkscape:groupmode="layer"
     id="layer1"><g
       id="g4793"
       transform="matrix(1.9069747,0,0,1.9069747,-10.494471,4.5779612)"><g
         id="g2359"
         transform="matrix(2.3032096,0,0,1.0071942,-9.91959,-0.84371464)"
         style="fill:#ffffff;fill-opacity:1;stroke:#979797;stroke-width:0.25624;stroke-linecap:round;stroke-linejoin:round;stroke-dasharray:none;stroke-opacity:1"><g
           id="polyline1783"
           transform="matrix(0.02645833,0,0,0.02645833,8.0380059,2.7838617)"
           style="fill:#ffffff;fill-opacity:1;stroke:#979797;stroke-width:9.68464;stroke-linecap:round;stroke-linejoin:round;stroke-dasharray:none;stroke-opacity:1"><path
             style="color:#000000;fill:#ffffff;fill-opacity:1;stroke:#979797;stroke-width:9.68464;stroke-linecap:round;stroke-linejoin:round;stroke-dasharray:none;stroke-opacity:1"
             d="M 0,540 H 1720"
             id="path2379" /><path
             style="color:#000000;fill:#ffffff;fill-opacity:1;stroke:#979797;stroke-width:9.68464;stroke-linecap:round;stroke-linejoin:round;stroke-dasharray:none;stroke-opacity:1"
             d="m 0,530 v 20 h 1720 v -20 z"
             id="path2381" /></g><g
           id="polyline1785"
           transform="matrix(0.02645833,0,0,0.02645833,8.0380059,2.7838617)"
           style="fill:#ffffff;fill-opacity:1;stroke:#979797;stroke-width:9.68464;stroke-linecap:round;stroke-linejoin:round;stroke-dasharray:none;stroke-opacity:1"><path
             style="color:#000000;fill:#ffffff;fill-opacity:1;stroke:#979797;stroke-width:9.68464;stroke-linecap:round;stroke-linejoin:round;stroke-dasharray:none;stroke-opacity:1"
             d="M 0,720 H 1720"
             id="path2385" /><path
             style="color:#000000;fill:#ffffff;fill-opacity:1;stroke:#979797;stroke-width:9.68464;stroke-linecap:round;stroke-linejoin:round;stroke-dasharray:none;stroke-opacity:1"
             d="m 0,710 v 20 h 1720 v -20 z"
             id="path2387" /></g><g
           id="polyline1787"
           transform="matrix(0.02645833,0,0,0.02645833,8.0380059,2.7838617)"
           style="fill:#ffffff;fill-opacity:1;stroke:#979797;stroke-width:9.68464;stroke-linecap:round;stroke-linejoin:round;stroke-dasharray:none;stroke-opacity:1"><path
             style="color:#000000;fill:#ffffff;fill-opacity:1;stroke:#979797;stroke-width:9.68464;stroke-linecap:round;stroke-linejoin:round;stroke-dasharray:none;stroke-opacity:1"
             d="M 0,900 H 1720"
             id="path2391" /><path
             style="color:#000000;fill:#ffffff;fill-opacity:1;stroke:#979797;stroke-width:9.68464;stroke-linecap:round;stroke-linejoin:round;stroke-dasharray:none;stroke-opacity:1"
             d="m 0,890 v 20 h 1720 v -20 z"
             id="path2393" /></g><g
           id="polyline1789"
           transform="matrix(0.02645833,0,0,0.02645833,8.0380059,2.7838617)"
           style="fill:#ffffff;fill-opacity:1;stroke:#979797;stroke-width:9.68464;stroke-linecap:round;stroke-linejoin:round;stroke-dasharray:none;stroke-opacity:1"><path
             style="color:#000000;fill:#ffffff;fill-opacity:1;stroke:#979797;stroke-width:9.68464;stroke-linecap:round;stroke-linejoin:round;stroke-dasharray:none;stroke-opacity:1"
             d="M 0,1080 H 1720"
             id="path2397" /><path
             style="color:#000000;fill:#ffffff;fill-opacity:1;stroke:#979797;stroke-width:9.68464;stroke-linecap:round;stroke-linejoin:round;stroke-dasharray:none;stroke-opacity:1"
             d="m 0,1070 v 20 h 1720 v -20 z"
             id="path2399" /></g><g
           id="polyline1791"
           transform="matrix(0.02645833,0,0,0.02645833,8.0380059,2.7838617)"
           style="fill:#ffffff;fill-opacity:1;stroke:#979797;stroke-width:9.68464;stroke-linecap:round;stroke-linejoin:round;stroke-dasharray:none;stroke-opacity:1"><path
             style="color:#000000;fill:#ffffff;fill-opacity:1;stroke:#979797;stroke-width:9.68464;stroke-linecap:round;stroke-linejoin:round;stroke-dasharray:none;stroke-opacity:1"
             d="M 0,1260 H 1720"
             id="path2403" /><path
             style="color:#000000;fill:#ffffff;fill-opacity:1;stroke:#979797;stroke-width:9.68464;stroke-linecap:round;stroke-linejoin:round;stroke-dasharray:none;stroke-opacity:1"
             d="m 0,1250 v 20 h 1720 v -20 z"
             id="path2405" /></g></g><use
         xlink:href="#clef"
         x="80"
         y="1080"
         height="720"
         width="720"
         id="use1793"
         transform="matrix(0.02645833,0,0,0.02645833,8.7926865,2.1314864)"
         style="fill:#ffffff;fill-opacity:1;stroke:#979797;stroke-width:20;stroke-linecap:round;stroke-linejoin:round;stroke-dasharray:none;stroke-opacity:1" /></g></g></svg>
