<?xml version="1.0" encoding="UTF-8" standalone="no"?>
<!-- Created with Inkscape (http://www.inkscape.org/) -->

<svg
   version="1.1"
   id="svg93"
   width="516.47998"
   height="94.720001"
   viewBox="0 0 516.47998 94.720001"
   sodipodi:docname="OcarinaOS.svg"
   inkscape:version="1.2.2 (b0a8486541, 2022-12-01)"
   xmlns:inkscape="http://www.inkscape.org/namespaces/inkscape"
   xmlns:sodipodi="http://sodipodi.sourceforge.net/DTD/sodipodi-0.dtd"
   xmlns:xlink="http://www.w3.org/1999/xlink"
   xmlns="http://www.w3.org/2000/svg"
   xmlns:svg="http://www.w3.org/2000/svg">
  <defs
     id="defs97">
    <linearGradient
       id="linearGradient5586">
      <stop
         style="stop-color:#ece8bc;stop-opacity:1;"
         offset="0.8108995"
         id="stop9696" />
      <stop
         style="stop-color:#d1c21d;stop-opacity:1;"
         offset="1"
         id="stop9698" />
    </linearGradient>
    <linearGradient
       id="linearGradient5586-1">
      <stop
         style="stop-color:#ffffff;stop-opacity:1;"
         offset="0.8108995"
         id="stop5582" />
      <stop
         style="stop-color:#958b14;stop-opacity:1;"
         offset="1"
         id="stop5584" />
    </linearGradient>
    <radialGradient
       inkscape:collect="always"
       xlink:href="#linearGradient5586"
       id="radialGradient5588"
       cx="268.6344"
       cy="-653.34204"
       fx="268.6344"
       fy="-653.34204"
       r="254.83549"
       gradientTransform="matrix(1.3903194,0,-9.9919975e-8,0.28038698,-108.05364,27.473175)"
       gradientUnits="userSpaceOnUse" />
    <radialGradient
       inkscape:collect="always"
       xlink:href="#linearGradient5586-1"
       id="radialGradient9701"
       gradientUnits="userSpaceOnUse"
       gradientTransform="matrix(1.3903194,0,-9.9919975e-8,0.28038698,-108.05364,27.473172)"
       cx="268.6344"
       cy="-653.34204"
       fx="268.6344"
       fy="-653.34204"
       r="254.83549" />
    <filter
       inkscape:menu-tooltip="Bright metallic effect for any color"
       inkscape:menu="Bevels"
       inkscape:label="Bright Metal"
       style="color-interpolation-filters:sRGB;"
       id="filter11987"
       x="-0.094492511"
       y="-0.54549727"
       width="1.1889848"
       height="2.0909566">
      <feGaussianBlur
         result="result6"
         stdDeviation="8"
         in="SourceGraphic"
         id="feGaussianBlur11967" />
      <feComposite
         in2="SourceGraphic"
         in="result6"
         operator="xor"
         result="result10"
         id="feComposite11969" />
      <feGaussianBlur
         result="result2"
         stdDeviation="8"
         id="feGaussianBlur11971" />
      <feComposite
         in2="SourceGraphic"
         operator="atop"
         in="result10"
         result="result91"
         id="feComposite11973" />
      <feComposite
         result="result4"
         in="result2"
         operator="xor"
         in2="result91"
         id="feComposite11975" />
      <feGaussianBlur
         in="result4"
         result="result3"
         stdDeviation="4"
         id="feGaussianBlur11977" />
      <feSpecularLighting
         result="result5"
         specularExponent="5"
         specularConstant="1.1"
         surfaceScale="18"
         id="feSpecularLighting11981">
        <feDistantLight
           azimuth="235"
           elevation="55"
           id="feDistantLight11979" />
      </feSpecularLighting>
      <feComposite
         in="result3"
         k3="1.1"
         k2="0.5"
         operator="arithmetic"
         result="result7"
         in2="result5"
         k1="0.5"
         id="feComposite11983" />
      <feComposite
         in="result7"
         operator="atop"
         in2="SourceGraphic"
         result="result8"
         id="feComposite11985" />
    </filter>
    <filter
       inkscape:collect="always"
       style="color-interpolation-filters:sRGB"
       id="filter12731"
       x="-0.0013122387"
       y="-0.0078709233"
       width="1.0026245"
       height="1.0157418">
      <feGaussianBlur
         inkscape:collect="always"
         stdDeviation="0.27648134"
         id="feGaussianBlur12733" />
    </filter>
  </defs>
  <sodipodi:namedview
     id="namedview95"
     pagecolor="#3f2954"
     bordercolor="#000000"
     borderopacity="0.25"
     inkscape:showpageshadow="2"
     inkscape:pageopacity="0"
     inkscape:pagecheckerboard="0"
     inkscape:deskcolor="#d1d1d1"
     showgrid="false"
     inkscape:zoom="1.2682002"
     inkscape:cx="228.67053"
     inkscape:cy="-180.96512"
     inkscape:window-width="1854"
     inkscape:window-height="1011"
     inkscape:window-x="0"
     inkscape:window-y="0"
     inkscape:window-maximized="1"
     inkscape:current-layer="g99" />
  <g
     inkscape:groupmode="layer"
     inkscape:label="Image"
     id="g99">
    <g
       id="g12737"
       transform="translate(-3.0884701,148.14149)">
      <path
         style="fill:url(#radialGradient5588);fill-opacity:1;stroke:#a89436;stroke-width:0.32;stroke-opacity:1"
         d="m 35.533185,-56.838515 c -7.31333,-1.49389 -11.18851,-3.45687 -15.94898,-8.07897 -8.07784,-7.84305 -12.2267203,-17.98687 -12.9767303,-31.72748 -0.74813,-13.706215 2.19326,-26.091385 8.1936803,-34.500645 4.64064,-6.5036 10.60595,-10.90718 17.42759,-12.865 3.04443,-0.87376 10.08604,-1.2009 13.62011,-0.63276 13.80763,2.21972 24.29179,14.20826 27.58609,31.54442 1.90787,10.04014 1.26504,22.366895 -1.64298,31.505415 -3.37758,10.61412 -11.15773,19.69938 -19.67996,22.98125 -3.86046,1.48664 -6.85253,1.9838 -11.68533,1.94163 -2.33942,-0.0204 -4.54149,-0.0959 -4.89349,-0.16786 z m 10.16966,-10.46659 c 4.8063,-2.35151 7.693,-8.60453 9.25532,-20.04843 0.6588,-4.82564 0.55423,-23.787945 -0.15729,-28.522265 -0.80881,-5.38172 -1.70567,-8.68469 -3.25527,-11.98858 -1.65833,-3.53572 -3.19335,-5.30186 -5.75322,-6.61948 -1.7113,-0.88084 -2.25886,-1 -4.6592,-1.01391 -2.2948,-0.0133 -3.0029,0.11686 -4.52972,0.83266 -4.86324,2.27999 -7.89988,8.6064 -9.42303,19.63157 -0.45113,3.26545 -0.57472,6.29315 -0.57472,14.08 0,10.770035 0.40881,15.307545 1.91722,21.280005 0.83623,3.31104 3.03146,8.18587 4.43395,9.84627 0.94608,1.12007 3.02513,2.45658 4.92644,3.16696 1.89152,0.70672 5.69881,0.39277 7.81952,-0.6448 z m -5.33559,-21.08843 c -2.53584,-3.96326 -6.91407,-11.59983 -6.91407,-12.059635 0,-0.7268 7.0595,-12.88854 7.57912,-13.05693 0.30872,-0.10004 7.35726,11.24028 7.95574,12.7999 0.1786,0.4654 -7.42483,13.036665 -7.88491,13.036665 -0.15136,0 -0.4825,-0.324 -0.73588,-0.72 z m -15.75266,18.88 c -0.12999,-0.22 -0.57144,-0.93865 -0.98099,-1.59699 -1.9107,-3.0714 -3.67278,-9.25763 -4.12533,-14.48301 -0.22606,-2.61031 -0.55871,-3.54691 -1.75924,-4.95333 -0.6644,-0.77835 -0.68586,-0.78149 -1.1358,-0.16615 -1.06241,1.45293 -1.2364,2.98041 -0.65901,5.78548 1.04083,5.05651 3.45686,10.02107 6.80051,13.974 1.39306,1.6469 2.47889,2.4876 1.85986,1.44 z m -6.76679,-29.57987 c 1.07806,-1.488235 1.02703,-1.943945 -0.40538,-3.620135 l -0.95711,-1.12 -0.77038,0.93303 c -1.61336,1.95402 -1.6472,2.22411 -0.482,3.846625 0.58228,0.81081 1.19503,1.42875 1.36167,1.37321 0.16664,-0.0555 0.73058,-0.69128 1.2532,-1.41273 z m -0.0394,-11.700135 c 1.07974,-1.25834 1.4781,-2.25795 1.88096,-4.72 0.95989,-5.8662 3.03724,-12.30812 4.94214,-15.32567 0.47733,-0.75614 0.80402,-1.43866 0.72597,-1.5167 -0.0781,-0.078 -1.06327,0.85326 -2.18939,2.06958 -2.3948,2.5866 -4.8405,7.04416 -6.30198,11.48608 -1.39853,4.25055 -1.51248,5.37867 -0.72798,7.20671 0.35877,0.836 0.74234,1.52 0.85239,1.52 0.11004,0 0.47809,-0.324 0.81789,-0.72 z m 398.844745,53.955025 c -7.31334,-1.49389 -11.18851,-3.45687 -15.94899,-8.07897 -6.71657,-6.52136 -10.41324,-14.05474 -12.42275,-25.31605 -0.58457,-3.27609 -0.58422,-17.527025 0,-20.800005 2.04013,-11.41893 5.8849,-19.35 12.4208,-25.62196 3.81558,-3.6615 7.75046,-5.95009 12.64595,-7.35511 3.04445,-0.87376 10.08605,-1.2009 13.62013,-0.63276 13.80762,2.21972 24.29177,14.20826 27.58608,31.54442 1.90787,10.04014 1.26505,22.366895 -1.64298,31.505415 -3.3776,10.61412 -11.15772,19.69938 -19.67996,22.98125 -3.86045,1.48664 -6.85252,1.9838 -11.68532,1.94163 -2.33942,-0.0204 -4.5415,-0.0959 -4.8935,-0.16786 z m 10.16967,-10.46659 c 4.8063,-2.35151 7.69299,-8.60453 9.25533,-20.04843 0.65878,-4.82564 0.5542,-23.787945 -0.15732,-28.522265 -0.8088,-5.38172 -1.70566,-8.68469 -3.25526,-11.98858 -1.65834,-3.53572 -3.19334,-5.30186 -5.75322,-6.61948 -1.71129,-0.88084 -2.25884,-1 -4.6592,-1.01391 -2.29478,-0.0133 -3.00291,0.11686 -4.52972,0.83266 -2.51879,1.18086 -4.27428,3.11204 -5.9192,6.51157 -3.05274,6.30902 -4.08077,13.16563 -4.07821,27.2 0.003,10.770105 0.41193,15.321255 1.91686,21.280005 0.83626,3.31104 3.03149,8.18587 4.43399,9.84627 0.94608,1.12007 3.02512,2.45658 4.92643,3.16696 1.89152,0.70672 5.69881,0.39277 7.81952,-0.6448 z m -5.33559,-21.08843 c -2.47196,-3.86342 -6.91241,-11.59066 -6.9062,-12.018115 0.01,-0.6805 7.08051,-12.93135 7.55456,-13.08937 0.36915,-0.12305 8.22825,12.88493 8.02208,13.27773 -1.0048,1.914085 -7.72493,12.549755 -7.92957,12.549755 -0.15411,0 -0.48749,-0.324 -0.74087,-0.72 z m -15.75267,18.88 c -0.12998,-0.22 -0.57145,-0.93865 -0.98099,-1.59699 -1.91069,-3.0714 -3.67277,-9.25763 -4.12531,-14.48301 -0.22608,-2.61031 -0.55872,-3.54691 -1.75927,-4.95333 -0.66438,-0.77835 -0.68585,-0.78149 -1.1358,-0.16615 -1.0624,1.45293 -1.23639,2.98041 -0.65898,5.78548 1.0408,5.05651 3.45683,10.02107 6.80048,13.974 1.39309,1.6469 2.47891,2.4876 1.85987,1.44 z m -6.65027,-29.72723 1.08538,-1.465295 -1.1329,-1.48375 c -0.6231,-0.81605 -1.25789,-1.48373 -1.41059,-1.48373 -0.35143,0 -2.25303,2.56582 -2.25303,3.04 0,0.56235 1.96279,3.079075 2.31088,2.963045 0.17319,-0.0577 0.8033,-0.76435 1.40026,-1.57027 z m 0.32125,-12.106335 c 0.78006,-0.97512 1.07609,-1.77604 1.38365,-3.74349 0.9695,-6.20229 2.89187,-12.35413 4.86787,-15.5778 0.52419,-0.85517 0.89129,-1.61663 0.81577,-1.69214 -0.0755,-0.0755 -1.08819,0.8898 -2.25043,2.14512 -1.61837,1.74799 -2.56281,3.19317 -4.0335,6.17213 -1.90586,3.86038 -3.53575,8.69984 -3.53575,10.49828 0,0.96654 1.11239,3.48423 1.5265,3.45494 0.12842,-0.009 0.6801,-0.57475 1.22589,-1.25704 z m 61.42204,49.833565 c -0.11712,-2.684 -0.16828,-11 -0.11369,-18.48 l 0.0993,-13.6 0.62954,1.44 c 3.30726,7.56516 7.35411,14.39048 10.63088,17.92978 5.05721,5.46241 12.39117,8.67715 17.50182,7.6717 5.7697,-1.13512 9.36262,-5.18979 9.72525,-10.97516 0.1488,-2.37372 0.10013,-2.60737 -1.01194,-4.85746 -1.99385,-4.0343 -4.5343,-5.95813 -16.67555,-12.62808 -6.54505,-3.59561 -9.66595,-5.725565 -12.62013,-8.613015 -5.63145,-5.50423 -7.63769,-10.84701 -7.2878,-19.40777 0.27523,-6.73387 2.06982,-10.96742 6.40006,-15.09812 2.57907,-2.46022 5.17805,-4.00444 8.72522,-5.1842 4.07616,-1.35569 7.38435,-1.75301 12.90003,-1.5493 5.40076,0.19947 8.28784,0.85042 12.48691,2.81545 1.47638,0.69089 2.81389,1.25617 2.97229,1.25617 0.15836,0 1.58124,-0.86959 3.16188,-1.93243 1.58068,-1.06283 3.08714,-2.01423 3.34775,-2.11423 0.41443,-0.15904 0.47379,1.78705 0.47379,15.53242 0,8.64283 -0.1247,15.71424 -0.27712,15.71424 -0.15242,0 -0.6032,-0.9 -1.00176,-2 -3.06954,-8.47211 -8.11878,-14.79378 -14.24112,-17.82993 -7.73437,-3.83559 -15.18976,-2.49286 -18.06089,3.2528 -1.34352,2.68862 -1.35485,5.06183 -0.0374,7.84661 1.68163,3.55463 3.89408,5.22862 14.0983,10.66708 13.80714,7.35866 20.22035,13.719215 22.79734,22.610165 0.62656,2.1617 0.72138,3.21673 0.71296,7.93328 -0.0109,6.11073 -0.31308,7.59796 -2.34054,11.52 -1.42733,2.76111 -5.75027,7.24494 -8.54573,8.86375 -4.88889,2.8311 -10.14496,4.09625 -17.01792,4.09625 -6.54496,0 -10.87302,-0.8842 -18.02729,-3.68285 l -1.46115,-0.5716 -3.60554,2.12723 c -1.98304,1.16997 -3.72234,2.12722 -3.86512,2.12722 -0.14278,0 -0.35546,-2.196 -0.47258,-4.88 z m 47.42298,-16.03756 c 0.3296,-1.23226 0.5183,-3.15309 0.50717,-5.16244 -0.0298,-5.3511 -2.07588,-10.25161 -5.64509,-13.52 -1.45232,-1.32989 -1.53495,-1.36 -3.73235,-1.36 -1.45117,0 -2.24714,0.12751 -2.24714,0.35998 0,0.19799 0.36707,1.16999 0.81571,2.16 0.60157,1.32746 1.15715,2.01004 2.11632,2.60002 1.53075,0.94156 3.82499,3.40315 4.93149,5.29128 0.43149,0.73627 1.09037,2.54693 1.46419,4.02369 0.56666,2.23868 0.6504,3.27017 0.50368,6.20503 -0.16429,3.28623 -0.14483,3.44844 0.29258,2.44244 0.25769,-0.59266 0.70473,-1.96066 0.99344,-3.04 z m -16.58944,-22.742645 c 0.17686,-0.10931 -0.009,-0.95739 -0.4425,-2.02397 -0.80806,-1.98617 -0.58512,-1.88116 -3.68547,-1.73583 -1.51456,0.071 -1.55014,0.26623 -0.47113,2.58417 l 0.80262,1.724185 1.74602,-0.18021 c 0.96032,-0.09911 1.88304,-0.264875 2.05046,-0.368345 z m -10.80445,-6.44671 c 0.12419,-0.0768 -0.13219,-0.96609 -0.56969,-1.97632 -0.65828,-1.51993 -1.07328,-2.00237 -2.40583,-2.79677 -2.47037,-1.4727 -5.82297,-5.17492 -6.62329,-7.31397 -0.8825,-2.35866 -1.41751,-5.79138 -1.16672,-7.48603 0.29763,-2.01144 -0.30948,-1.65995 -0.9256,0.53587 -1.99693,7.117 0.16691,13.71202 6.0159,18.33538 1.5863,1.25391 1.64576,1.27172 3.53146,1.05838 1.05491,-0.11935 2.01961,-0.27979 2.14377,-0.35654 z M 98.893175,-57.733785 c -4.45976,-1.04165 -7.49214,-2.71575 -10.73007,-5.9238 -6.13994,-6.08327 -8.98533,-14.48543 -8.99994,-26.57595 -0.015,-12.381305 2.70785,-20.512015 9.01001,-26.905205 3.03132,-3.07511 5.49542,-4.61217 9.28,-5.7887 2.1417,-0.6658 3.019915,-0.74569 8.159995,-0.74223 6.53352,0.004 9.37013,0.54637 13.33648,2.5481 l 2.13649,1.07824 2.7772,-1.89511 c 1.52747,-1.0423 2.83405,-1.8951 2.90352,-1.8951 0.0695,0 0.12631,6.2005 0.12631,13.77888 0,8.27788 -0.11721,13.706455 -0.29359,13.597445 -0.16147,-0.0998 -0.89288,-1.29629 -1.62534,-2.65888 -4.03114,-7.499025 -9.37163,-13.690535 -13.60107,-15.768445 -1.91105,-0.93889 -2.56896,-1.09974 -4.48,-1.09525 -2.69912,0.006 -4.20291,0.69333 -6.15622,2.81242 -3.822535,4.14697 -5.655755,11.48973 -5.645825,22.613835 0.014,15.74481 3.92798,24.85201 11.084015,25.79097 2.96839,0.38949 8.32731,-2.34514 11.18575,-5.70804 3.03418,-3.56965 6.02276,-8.66384 7.93344,-13.52293 0.55364,-1.408 1.13988,-2.6968 1.30273,-2.864 0.18159,-0.18643 0.29611,5.47572 0.29611,14.64 0,8.2192 -0.10152,14.944 -0.22561,14.944 -0.12408,0 -1.47377,-0.79127 -2.99932,-1.75838 l -2.77372,-1.75837 -2.06645,0.93697 c -3.92591,1.78009 -6.61129,2.30132 -12.5749,2.44077 -3.93179,0.0919 -5.97231,0.003 -7.359995,-0.32124 z m 218.967495,-11.93975 c -5.01229,-6.82 -11.92502,-16.24544 -15.36163,-20.94542 -3.43661,-4.69998 -6.33782,-8.45598 -6.44713,-8.34667 -0.10931,0.10932 -0.19875,7.65882 -0.19875,16.77667 v 16.57791 l 3.68,3.25865 c 2.024,1.79225 3.68,3.38019 3.68,3.52875 0,0.14856 -5.544,0.27011 -12.32,0.27011 -6.776,0 -12.32,-0.12155 -12.32,-0.27011 0,-0.14856 1.656,-1.7365 3.68,-3.52875 l 3.68,-3.25865 v -24.91876 -24.918765 l -3.74955,-3.31249 -3.74954,-3.31248 9.26565,-0.085 c 5.0961,-0.0468 9.42814,-0.0227 9.62673,0.0535 0.1986,0.0762 4.51119,5.91047 9.58355,12.96503 5.07235,7.05456 9.33962,12.826475 9.48281,12.826475 0.14319,0 0.26035,-4.316065 0.26035,-9.591255 v -9.59125 l -3.71449,-3.28875 -3.71448,-3.28875 6.43448,-0.0866 c 3.53897,-0.0476 9.33727,-0.0476 12.88511,0 l 6.45063,0.0866 -3.72877,3.2 -3.72877,3.2 -0.003,29.200005 c 0,16.44055 -0.12403,29.2 -0.28147,29.2 -0.15379,0 -4.38058,-5.58 -9.39287,-12.4 z m -188.87256,9.91062 c 0.53622,-0.47884 2.29337,-1.98408 3.90477,-3.34498 2.83445,-2.39382 2.95039,-2.54486 3.5615,-4.64 0.34742,-1.19111 3.58428,-12.17364 7.19301,-24.40564 6.40094,-21.696325 6.72257,-22.835795 6.64369,-23.537055 -0.0209,-0.18537 -1.60815,-1.69737 -3.52733,-3.36 l -3.48941,-3.02295 11.37865,-0.0841 c 6.25826,-0.0462 11.41981,-0.0429 11.4701,0.007 0.0503,0.0503 3.19792,12.54414 6.9947,27.764095 3.79678,15.21995 7.08147,28.04517 7.29931,28.50048 0.53528,1.11882 4.94505,5.09216 5.65148,5.09216 0.55194,0 3.63024,-2.45573 5.06458,-4.04028 l 0.72,-0.79541 v -25.07281 -25.073185 l -3.56157,-3.14898 -3.56157,-3.14897 15.64157,-0.0962 c 16.65615,-0.1024 19.40131,0.0525 24.69871,1.39406 7.29568,1.84756 12.13404,5.79435 13.67494,11.15503 0.64885,2.25732 0.71838,6.75597 0.1422,9.20132 -1.30228,5.527025 -5.56197,9.295835 -12.61142,11.158105 -1.72741,0.45633 -2.73458,0.87741 -2.6763,1.11891 0.0514,0.21298 3.18944,5.38949 6.97344,11.50337 l 6.88,11.11614 3.66971,3.00461 c 2.01834,1.65254 3.89034,3.00385 4.16,3.0029 0.46919,-0.002 5.32295,-4.10459 6.49029,-5.48633 0.52292,-0.61896 0.56,-2.32166 0.56,-25.71497 v -25.052115 l -3.54143,-3.15244 -3.54142,-3.15243 7.72355,-0.0857 c 4.24795,-0.0472 11.1291,-0.0472 15.29143,0 l 7.56789,0.0857 -3.75001,3.29873 -3.75001,3.29873 3.2e-4,9.98127 c 2e-4,5.4897 0.0958,16.792675 0.21245,25.117715 l 0.21208,15.13643 3.59857,3.10357 3.59856,3.10356 -25.61592,0.0819 c -16.45478,0.0526 -25.75162,-0.0307 -25.99537,-0.233 -0.20869,-0.1732 -3.89648,-6.14507 -8.19509,-13.27081 l -7.8156,-12.9559 -0.0896,9.5089 c -0.0493,5.22989 -0.0173,9.80614 0.0712,10.16943 0.0884,0.3633 1.74874,2.00669 3.6896,3.65198 1.94085,1.64529 3.52882,3.04005 3.52882,3.09946 0,0.0594 -12.78,0.1011 -28.4,0.0926 l -28.4,-0.0154 2.64014,-2.4646 c 1.66047,-1.55007 2.64009,-2.70999 2.64,-3.1259 -1.7e-4,-0.84319 -2.72432,-13.06771 -3.0179,-13.54272 -0.14824,-0.23987 -2.08901,-0.35599 -5.94986,-0.35599 -5.13178,0 -5.76052,0.0584 -6.02359,0.56 -0.37989,0.72427 -3.5755,12.64449 -3.54745,13.23265 0.0117,0.24604 1.54666,1.63535 3.41093,3.08735 l 3.3896,2.64 -12.13093,-0.009 -12.13093,-0.009 0.97494,-0.87062 z m 30.0566,-26.61695 c 0.18882,-0.30551 -2.81756,-14.318795 -3.33256,-15.533675 -0.21787,-0.51395 -0.30717,-0.54547 -0.45341,-0.16 -0.60295,1.58927 -4.02201,15.459235 -3.87105,15.703505 0.24297,0.39314 7.41367,0.38392 7.65702,-0.01 z m 53.92169,-8.98832 c 5.61002,-0.5757 8.45358,-1.98316 9.93299,-4.916465 0.82993,-1.64557 0.95377,-2.23608 0.95377,-4.548 0,-4.60592 -1.5535,-7.38948 -5.01287,-8.98205 -2.2075,-1.01625 -5.51149,-1.68649 -8.34713,-1.69329 l -2.32,-0.006 v 10.24 10.240005 h 0.7661 c 0.42135,0 2.23356,-0.15059 4.02714,-0.33464 z m 120.1817,35.60527 c 0.53623,-0.47884 2.29338,-1.98408 3.90477,-3.34498 2.83376,-2.39322 2.95059,-2.54538 3.56253,-4.64 0.34796,-1.19111 3.22678,-10.94964 6.39734,-21.68564 3.17056,-10.736005 6.1889,-20.960005 6.70746,-22.720005 0.5848,-1.98487 0.84182,-3.38227 0.67686,-3.68 -0.14624,-0.264 -1.7729,-1.776 -3.61478,-3.36 l -3.3489,-2.88 11.37914,-0.0841 c 6.25852,-0.0462 11.42044,-0.0428 11.47097,0.008 0.0505,0.0505 3.19984,12.54436 6.9985,27.764095 3.79865,15.21974 7.08317,28.04619 7.29891,28.50323 0.21574,0.45704 1.86826,2.16794 3.67226,3.80201 1.804,1.63406 3.27999,3.02412 3.27999,3.08902 0,0.0649 -6.44399,0.11106 -14.31999,0.1026 l -14.32,-0.0154 2.64012,-2.46461 c 1.66048,-1.55006 2.6401,-2.70999 2.64,-3.12589 -1.6e-4,-0.8432 -2.72432,-13.06772 -3.01788,-13.54273 -0.14826,-0.23987 -2.08903,-0.35598 -5.94986,-0.35598 -5.13178,0 -5.76051,0.0584 -6.02358,0.56 -0.37991,0.72426 -3.57552,12.64449 -3.54746,13.23265 0.0118,0.24604 1.54666,1.63535 3.41091,3.08735 l 3.3896,2.64 -12.13091,-0.009 -12.13094,-0.009 0.97494,-0.87062 z m 30.05549,-26.61516 c 0.19043,-0.30808 -2.81738,-14.353575 -3.32685,-15.535465 -0.22176,-0.51444 -0.31162,-0.54583 -0.45802,-0.16 -0.60294,1.58927 -4.02201,15.459235 -3.87104,15.703505 0.24228,0.39203 7.41332,0.38449 7.65591,-0.008 z"
         id="path384" />
      <path
         id="path8944"
         style="opacity:0.243875;fill:url(#radialGradient9701);fill-opacity:1;stroke:none;stroke-width:0.32;stroke-opacity:1;filter:url(#filter12731)"
         d="m 39.865234,-142.9043 c -3.298428,0.11256 -6.669059,0.37957 -9.727566,1.72519 -7.255015,2.92872 -12.995789,8.91377 -16.481453,15.8318 -4.0783749,8.26687 -5.3847143,17.64678 -5.1255468,26.787232 0.2556174,8.600308 1.9186398,17.412277 6.4985718,24.818915 2.629306,4.231479 6.064231,7.998686 10.140454,10.873921 3.259333,2.222336 7.117481,3.38261 10.963147,4.07505 2.255006,0.117781 4.516014,0.15211 6.773409,0.08711 0.380727,-0.02481 0.89461,-0.04454 1.398438,-0.08789 5.489183,-0.443173 10.74697,-2.839747 14.806809,-6.540568 5.690599,-5.110191 9.649243,-12.030112 11.507644,-19.426229 0.11944,-0.500652 0.327427,-1.337058 0.461321,-1.973012 1.341495,-6.35303 1.701208,-12.898888 1.247663,-19.370739 -0.07466,-0.98339 -0.195128,-2.22676 -0.336682,-3.30877 -0.301499,-2.44352 -0.83045,-5.10183 -1.513233,-7.57344 -2.156555,-7.84347 -6.309298,-15.39683 -12.842364,-20.41611 -4.659982,-3.5964 -10.525812,-5.7028 -16.43858,-5.52199 -0.444141,-0.004 -0.888019,0.0116 -1.332032,0.0195 z m 381.119146,0 c -3.24146,0.10809 -6.5447,0.37759 -9.56836,1.64453 -6.03687,2.28938 -10.93802,6.92023 -14.47786,12.23064 -2.85664,4.35112 -4.67141,9.30425 -5.86199,14.34944 -0.22479,0.93876 -0.47786,2.14657 -0.67195,3.19836 -0.47478,2.37558 -0.44162,4.86885 -0.52402,7.20607 -0.0512,3.33473 -0.0504,6.717182 0.0801,9.977003 0.0285,3.270011 0.78114,6.469149 1.59969,9.617247 0.93228,3.446785 2.30096,7.057221 4.16076,10.241712 2.6402,4.50939 6.23872,8.471208 10.48429,11.517423 3.27941,2.253825 7.16781,3.433036 11.0469,4.129683 2.25501,0.117768 4.51602,0.152111 6.77341,0.08711 0.38195,-0.02475 0.89676,-0.0449 1.40234,-0.08789 5.48769,-0.444828 10.74412,-2.840243 14.80291,-6.540568 5.69023,-5.110262 9.65003,-12.029981 11.50764,-19.426229 0.11944,-0.500652 0.32743,-1.337058 0.46132,-1.973012 1.53152,-7.306408 1.81707,-14.866839 0.96446,-22.278939 -0.0687,-0.49005 -0.13279,-1.05707 -0.2193,-1.61272 -0.24244,-1.65101 -0.6286,-3.56791 -1.06422,-5.29837 -2.01224,-7.9643 -6.00897,-15.68301 -12.44936,-20.9456 -4.77001,-3.91485 -10.90996,-6.2463 -17.11282,-6.05542 -0.44479,-0.004 -0.88932,0.0116 -1.33398,0.0195 z m 65.00781,0.004 c -4.48144,0.0941 -8.98876,1.19896 -12.89063,3.43164 -3.11496,1.9309 -5.8391,4.62487 -7.51562,7.90625 -1.91263,3.97629 -2.05244,8.52015 -1.82813,12.84766 0.23661,3.89335 1.58322,7.73278 4.03907,10.78515 3.08343,3.96654 7.24585,6.90761 11.58236,9.358952 5.28913,3.080902 10.84542,5.757472 15.77562,9.415582 2.30827,1.694545 4.14095,3.989085 5.28337,6.614601 0.80585,1.474094 1.06166,3.170027 0.87543,4.828825 -0.12428,4.189392 -2.10851,8.390596 -5.6326,10.762777 -3.2696,2.260325 -7.48265,3.133383 -11.36667,2.220693 -5.65623,-1.255787 -10.7136,-4.644217 -14.46986,-9.001192 -2.81029,-3.380687 -5.04745,-7.19366 -7.09453,-11.071329 -0.0557,7.329221 -0.10463,14.659752 0.0371,21.988281 0.0156,0.923844 0.0827,2.043018 0.13867,3.041016 1.89649,-1.099067 3.77839,-2.223056 5.66797,-3.333985 5.16182,2.074685 10.4803,4.072539 16.09475,4.359009 6.22926,0.388315 12.75401,-0.09137 18.36744,-3.051613 3.08414,-1.534122 5.50932,-4.095432 7.66476,-6.727318 1.42501,-1.853541 2.48293,-4.015636 3.04151,-6.286597 0.5648,-3.098012 0.36964,-6.270314 0.37551,-9.403521 0.0103,-3.45979 -1.26705,-6.792732 -2.9476,-9.767537 -3.2331,-5.539586 -8.54611,-9.437504 -13.91155,-12.744654 -5.31067,-3.30155 -11.13787,-5.75016 -16.19091,-9.46529 -2.94458,-2.14945 -5.043,-5.51194 -5.46485,-9.15075 -0.35288,-4.08485 1.92438,-8.19527 5.37133,-10.3379 3.99302,-2.46904 9.06267,-2.31128 13.38281,-0.8457 5.74763,1.86705 10.48992,6.05963 13.79238,11.04075 0.7138,1.05795 1.36967,2.15499 1.96934,3.28151 0.0392,-6.42815 0.0642,-12.85746 -0.0312,-19.28515 -1.57605,0.96014 -3.02622,2.21871 -4.8125,2.76953 -2.21263,-0.48097 -4.14053,-1.76929 -6.26326,-2.51795 -4.13147,-1.63258 -8.66259,-1.67321 -13.03947,-1.66174 z m -444.847659,5.40234 c 1.858776,-0.0479 3.761081,0.20075 5.393114,1.15017 2.806638,1.31232 4.916112,3.75602 6.260673,6.50435 2.44334,4.65176 3.514994,9.87359 4.138165,15.0487 0.51266,6.71354 0.499621,13.4564 0.409567,20.185326 -0.05748,3.704773 -0.231969,7.421417 -0.964892,11.063009 -0.916277,4.913846 -2.142718,9.978367 -5.13897,14.081651 -1.886443,2.593526 -4.750135,4.518769 -7.960407,4.951835 -2.550633,0.426792 -5.303353,0.365017 -7.609255,-0.936049 -2.205033,-1.100732 -4.311768,-2.632046 -5.455612,-4.876998 -2.118051,-3.75621 -3.588785,-7.866339 -4.371755,-12.106109 -1.432289,-7.288174 -1.209641,-14.756128 -1.225491,-22.145535 0.0043,-4.7186 0.201439,-9.45725 1.123076,-14.09684 0.927735,-4.90341 2.245931,-9.94408 5.327454,-13.97393 2.20457,-2.86631 5.666047,-4.97826 9.365739,-4.84787 0.236198,-5.5e-4 0.472396,-0.001 0.708594,-0.002 z m 381.121089,0 c 1.8584,-0.0485 3.75944,0.20219 5.39117,1.15017 2.83982,1.32475 4.95791,3.81124 6.30631,6.59332 2.41444,4.62822 3.47278,9.81792 4.09252,14.95973 0.51268,6.7135 0.50193,13.45645 0.40957,20.185326 -0.0589,3.671413 -0.22467,7.354828 -0.94652,10.964703 -0.91432,4.94993 -2.14696,10.048916 -5.15734,14.185817 -1.89153,2.587048 -4.74893,4.513933 -7.95845,4.945975 -2.55017,0.426591 -5.30195,0.365221 -7.60762,-0.935384 -2.23928,-1.110272 -4.36434,-2.679972 -5.50734,-4.964213 -2.13144,-3.800202 -3.5973,-7.960268 -4.36481,-12.248206 -1.34503,-7.003722 -1.17689,-14.173975 -1.17862,-21.272338 0.1316,-7.14065 0.35034,-14.43532 2.67348,-21.26021 1.37299,-3.73809 3.09908,-7.64281 6.40234,-10.07226 1.97333,-1.43374 4.3731,-2.3435 6.83672,-2.23097 0.20287,-4.7e-4 0.40573,-0.001 0.60859,-0.001 z m -396.628901,3.16211 c 0.48728,0.20835 1.472824,-0.10782 1.479368,0.60657 0.187587,0.82814 0.460685,1.69744 -0.0012,2.48839 -0.745045,1.51291 -1.716377,2.91627 -2.2855,4.51789 -1.694006,4.16072 -2.681196,8.56362 -3.442716,12.97747 -0.443682,2.18433 -1.62505,4.36018 -3.578126,5.52492 -0.562191,0.11053 -1.163186,0.49787 -1.637566,-0.0144 -1.207928,-0.61558 -1.616481,-2.04847 -2.12082,-3.21315 -0.996771,-2.66312 0.142736,-5.4489 0.924401,-8.0049 1.749232,-5.08981 4.296475,-10.06682 8.277344,-13.77735 0.63715,-0.57636 1.453629,-1.3844 2.384766,-1.10547 z m 380.964841,-0.0215 c 0.51877,0.11154 1.2875,-0.0402 1.65933,0.22612 0.11259,1.04393 0.46738,2.15076 -0.13394,3.11568 -0.95691,1.73539 -1.95744,3.45925 -2.6011,5.35692 -1.48352,3.94882 -2.31837,8.0983 -3.01413,12.24659 -0.3853,2.01973 -1.65309,3.79425 -3.25977,5.03516 -0.51615,0.25374 -1.02996,0.54459 -1.58962,0.21898 -1.36692,-0.32713 -1.93605,-1.82933 -2.44253,-2.99463 -0.59382,-1.32983 -0.71748,-2.82174 -0.33497,-4.22825 1.05409,-4.39639 2.86055,-8.59933 5.1015,-12.51759 1.38436,-2.30269 3.20608,-4.34212 5.2539,-6.07031 0.41442,-0.26192 0.85265,-0.53265 1.36133,-0.38867 z m 64.47266,5.00781 c 1.09706,0.50649 1.19586,1.94092 1.03279,3.00506 -0.24532,2.29857 0.29809,4.61969 1.01604,6.79182 1.05412,2.19427 2.81989,3.97516 4.66274,5.52841 1.30358,1.00027 2.93483,1.71538 3.71516,3.25543 0.66418,1.33053 1.43912,2.75968 1.37118,4.28334 -0.11953,0.60079 -0.47957,1.24419 -1.00544,1.53408 -1.59847,0.45935 -3.28798,0.69016 -4.95006,0.6385 -1.74603,-0.23484 -3.00522,-1.62372 -4.29725,-2.69259 -3.8339,-3.44139 -6.23577,-8.49156 -6.17705,-13.67256 0.0341,-2.5943 0.44944,-5.24128 1.54205,-7.60899 0.38195,-0.75235 1.07843,-1.30262 1.92779,-1.38909 0.47582,-0.27288 0.75581,0.12014 1.16205,0.32659 z m -367.17383,7.68359 c -2.23544,-0.0128 -4.516873,0.059 -6.621539,0.89881 -3.170654,1.00102 -5.880435,3.05873 -8.111113,5.48059 -3.830927,3.95861 -6.18583,9.16336 -7.144007,14.5532 -0.522635,2.725981 -0.753412,5.591991 -0.830372,8.268576 -0.159815,6.960737 0.38533,14.186122 3.468137,20.539751 2.047133,4.148622 5.208508,7.825637 9.206638,10.193406 2.698957,1.483411 5.759259,2.403186 8.856866,2.343992 4.02474,-0.0341 8.13865,0.07613 12.04453,-1.045899 2.18065,-0.654138 4.20477,-1.714386 6.2832,-2.625 1.24284,0.785774 2.56202,1.623256 3.75391,2.38086 0.0978,-5.864649 0.092,-11.730451 0.0664,-17.595704 -1.92207,3.622061 -4.11506,7.160916 -6.96133,10.133626 -2.67259,2.550999 -5.99884,4.55937 -9.65322,5.275529 -3.60508,0.641282 -7.27156,-1.253472 -9.505175,-4.023797 -3.065907,-3.800773 -4.285053,-8.697974 -4.995394,-13.434266 -0.82926,-6.058525 -0.848512,-12.218601 -0.289728,-18.302121 0.571117,-5.254643 1.716415,-10.725983 5.025938,-14.992723 1.654629,-2.11888 3.924829,-3.99036 6.695309,-4.25976 2.2546,-0.26701 4.62795,-0.10731 6.65545,1.00044 3.72922,1.78178 6.61043,4.89562 9.17095,8.06271 1.39449,1.7513 2.6702,3.59596 3.84157,5.50325 0.0532,-5.62607 0.0389,-11.2528 -0.008,-16.8789 -1.20374,0.82102 -2.40702,1.6427 -3.61133,2.46289 -3.01042,-1.50981 -6.01751,-3.27046 -9.43536,-3.62266 -2.61665,-0.3571 -5.26769,-0.3176 -7.90253,-0.3168 z m 96.48242,1.4961 c -3.4694,0.0215 -6.9388,0.043 -10.4082,0.0645 1.29296,1.14324 2.58608,2.2863 3.87891,3.42969 0,17.272785 0,34.545572 0,51.818358 -1.24662,1.425375 -2.5678,2.791092 -4.05469,3.96875 6.82813,-0.0037 13.65631,-0.0029 20.48437,-0.03711 -1.32006,-1.216347 -2.80611,-2.345255 -3.75339,-3.891101 -0.4443,-1.129345 -0.19868,-2.403184 -0.29508,-3.593871 -0.0411,-8.026718 0.11322,-16.053031 0.16566,-24.079481 6.34433,10.451402 12.55575,20.984626 19.03838,31.351217 1.59291,0.185373 3.30508,0.102655 4.94389,0.155511 3.17179,0.0346 6.34382,0.04066 9.51578,0.04601 -1.33218,-1.119507 -2.73259,-2.179214 -4.02344,-3.334964 -4.65368,-7.568754 -9.41688,-15.071794 -13.93129,-22.724256 -0.40598,-0.516207 -0.4234,-1.169615 -0.27942,-1.779016 0.53706,-1.514688 2.29456,-1.867539 3.65735,-2.297197 3.9034,-0.984123 7.93522,-2.792682 10.16686,-6.312677 1.68862,-2.551471 1.91706,-5.714903 1.74884,-8.685933 -0.0266,-2.6724 -0.99352,-5.31876 -2.79027,-7.30969 -3.12564,-3.53681 -7.79845,-5.13077 -12.30441,-6.01257 -3.29496,-0.65607 -6.68582,-0.70457 -9.9696,-0.77061 -3.9299,-0.0483 -7.86023,-0.025 -11.79025,-0.006 z m 56.20117,-0.0156 c -2.04756,0.0136 -4.09513,0.0273 -6.14257,0.0547 1.29754,1.15427 2.59477,2.30891 3.89257,3.46289 -0.0203,15.24404 0.049,30.488599 -0.0615,45.732283 -0.0846,2.089082 0.0705,4.2245 -0.43067,6.269671 -0.58508,1.408387 -1.93917,2.28165 -2.98926,3.325969 -0.80881,0.523156 0.11043,0.377846 0.65761,0.385362 6.36055,-0.02031 12.7211,-0.04063 19.08165,-0.06094 -1.27335,-1.099065 -2.54823,-2.196347 -3.82032,-3.296875 -0.25799,-17.354933 -0.49824,-34.71103 -0.4375,-52.06836 1.42207,-1.25043 2.84374,-2.50132 4.26563,-3.75195 -4.6716,-0.0605 -9.34371,-0.0706 -14.01563,-0.0527 z m 62.09961,-0.002 c -1.41993,0.0139 -2.83993,0.0222 -4.25976,0.0449 1.40944,1.24877 2.81974,2.49658 4.22851,3.7461 -0.0432,6.53274 0.11702,13.07174 -0.17469,19.599618 0.0521,1.293699 -0.89003,2.273372 -1.41533,3.378778 -0.31227,0.52929 -0.90314,-0.61174 -1.33661,-0.80909 -1.58846,-1.321057 -2.61171,-3.162076 -3.8981,-4.753879 -5.19658,-7.030427 -10.1993,-14.203517 -15.478,-21.173247 -4.22837,-0.0596 -8.4572,-0.002 -12.68555,0.0332 1.42326,1.25641 2.8454,2.51411 4.26953,3.76953 0,17.213539 0,34.427081 0,51.640622 -1.5338,1.359195 -3.12271,2.759639 -4.61718,4.09375 5.0509,0.0833 10.10339,0.08308 15.15429,0 -1.49561,-1.334892 -3.08241,-2.733907 -4.61718,-4.09375 0.0342,-11.1808 -0.0939,-22.364092 0.14512,-33.542953 10e-4,-1.207049 0.39564,-2.365899 0.5912,-3.548839 0.93874,0.48683 2.02461,0.7543 2.86664,1.38566 1.98689,2.190395 3.66893,4.640882 5.45653,6.993972 7.52008,10.173021 14.91909,20.438337 22.50496,30.563723 0.18465,-17.91078 0.0927,-35.822948 0.11914,-53.734375 1.38014,-1.18292 2.75907,-2.36724 4.13867,-3.55078 -3.66382,-0.0537 -7.32807,-0.0559 -10.99219,-0.043 z m -159.59375,0.004 c -3.50264,0.0176 -7.00522,0.0439 -10.50781,0.0703 1.18649,1.11905 2.54853,2.11327 3.47155,3.47041 0.57229,1.07029 0.0298,2.35239 -0.20006,3.46514 -2.83574,10.10427 -5.89476,20.145199 -8.83283,30.220921 -1.68718,5.650758 -3.29378,11.327577 -5.03031,16.962383 -0.76692,2.272235 -2.94153,3.562271 -4.62124,5.105754 4.3724,0.004 8.74479,0.0074 13.11719,0.0098 -1.01316,-0.939307 -2.32027,-1.72675 -2.88867,-3.03125 -0.3753,-0.987238 0.18933,-2.037271 0.3391,-3.030503 0.99482,-3.86419 1.95526,-7.745622 3.19028,-11.540716 0.49582,-1.462072 2.17617,-1.862909 3.55381,-1.855075 3.24285,-0.06297 6.49822,-0.140931 9.73477,0.108718 1.10637,0.04848 2.34175,0.601016 2.56485,1.790232 1.15286,4.423198 2.14159,8.892293 2.98437,13.384766 0.332,1.688444 -1.10125,2.968627 -2.13762,4.085825 0.265,0.150181 1.20748,0.02284 1.7345,0.06569 5.63437,0.0035 11.26875,0.0071 16.90312,0.01059 -1.40628,-1.278433 -2.92485,-2.525529 -3.89257,-4.1875 -1.68944,-5.96675 -3.1312,-12.001535 -4.68165,-18.005859 -3.11289,-12.36401 -6.17667,-24.741306 -9.32031,-37.097656 -1.82682,-0.0129 -3.65363,-0.004 -5.48047,-0.002 z m 204.16016,0 c -3.49418,0.0175 -6.9883,0.0438 -10.48242,0.0703 1.16533,1.08591 2.49125,2.05858 3.41616,3.36233 0.61304,1.43185 -0.0153,3.00326 -0.34326,4.43194 -4.49674,15.32201 -9.02651,30.635389 -13.55532,45.947916 -0.63849,2.376774 -2.81582,3.761569 -4.54706,5.305228 -0.41249,0.381578 1.01728,0.08658 1.38924,0.180069 3.84037,0.0017 7.68073,0.0051 11.5211,0.0088 -1.01874,-0.944622 -2.33311,-1.73552 -2.89844,-3.050781 -0.3599,-1.019095 0.21558,-2.090046 0.37013,-3.110193 0.99044,-3.830951 1.94136,-7.680223 3.16707,-11.443448 0.48207,-1.421431 2.10343,-1.855837 3.454,-1.846852 3.24528,-0.08096 6.50263,-0.135539 9.74318,0.08995 1.07724,0.05962 2.36965,0.513846 2.61655,1.691376 1.15266,4.260383 2.05665,8.58764 2.92641,12.914093 0.2907,1.021521 0.144,2.143042 -0.55927,2.96747 -0.45543,0.638388 -0.99848,1.209308 -1.54815,1.766904 6.2194,0.0047 12.43885,0.02263 18.6582,-0.0098 -1.34474,-1.305938 -2.81926,-2.536531 -3.83398,-4.130859 -1.74021,-6.176023 -3.23243,-12.420763 -4.83552,-18.632731 -3.06843,-12.17133 -6.08169,-24.361922 -9.17815,-36.509842 -1.82682,-0.0129 -3.65363,-0.004 -5.48047,-0.002 z m -155.07031,2.66992 c 3.91856,-0.10514 7.94564,0.2758 11.55273,1.91015 2.84131,1.23802 5.04219,3.82713 5.69246,6.87055 0.50892,2.25975 0.5757,4.6379 0.20012,6.92242 -0.72959,2.914772 -2.70039,5.572055 -5.5026,6.773696 -3.48581,1.572376 -7.38148,1.70799 -11.13412,2.003651 -0.93815,0 -1.8763,0 -2.81445,0 0,-8.162107 0,-16.324217 0,-24.486327 0.66862,0.002 1.33724,0.004 2.00586,0.006 z m -168.050784,9.0332 c -1.555083,2.63322 -3.102675,5.27396 -4.501953,7.99414 1.692133,3.217221 3.556588,6.341266 5.443359,9.447268 2.000918,-3.142517 3.950805,-6.322478 5.720704,-9.601558 -1.793321,-3.19541 -3.730113,-6.30902 -5.720704,-9.38477 -0.313802,0.51497 -0.627604,1.02995 -0.941406,1.54492 z m 381.136714,0.0215 c -1.55047,2.64445 -3.09312,5.29628 -4.50195,8.01953 1.67981,3.178181 3.52745,6.264635 5.39063,9.337888 1.97073,-3.052206 3.91548,-6.122569 5.77148,-9.246098 -1.78928,-3.28384 -3.73746,-6.48002 -5.73828,-9.63867 -0.30729,0.50912 -0.61458,1.01823 -0.92188,1.52735 z m -403.261714,3.32421 c 1.135667,1.39987 2.81464,2.84063 2.562065,4.83364 -0.244817,1.59402 -1.414315,2.85719 -2.474174,3.994489 -0.514472,0.431964 -1.123017,0.850151 -1.816406,0.601563 -1.349855,-0.214398 -2.154514,-1.526785 -2.918117,-2.546346 -0.940565,-1.160545 -1.28167,-2.860506 -0.458836,-4.178266 1.026461,-1.62079 2.377341,-3.00548 3.55664,-4.51367 0.516276,0.60287 1.032552,1.20573 1.548828,1.80859 z m 471.296874,-0.98828 c 1.40836,-0.10536 2.84964,0.67288 3.3423,2.03179 0.54127,1.37435 1.35962,2.85751 0.97155,4.369687 -0.35138,1.198464 -1.66636,1.529982 -2.76563,1.652843 -1.39268,0.197416 -2.79676,0.3033 -4.1947,0.457402 -0.75864,-1.76955 -1.76917,-3.448542 -2.28711,-5.310552 -0.33209,-1.34242 0.59658,-2.77895 1.96484,-3.00195 0.97376,-0.17843 1.98151,-0.15684 2.96875,-0.19922 z m -90.93164,0.5918 c 1.38436,0.65426 2.15338,2.10535 3.10786,3.23935 0.39868,0.52148 0.79659,1.04355 1.19488,1.56534 -1.2573,1.569929 -2.26076,3.393305 -3.82023,4.689955 -0.47516,0.429398 -1.03984,0.456652 -1.63865,0.330232 -1.32996,-0.35895 -2.13797,-1.658619 -2.9317,-2.703553 -0.72852,-0.96785 -1.28573,-2.304344 -0.58599,-3.441634 0.76652,-1.33282 1.64742,-2.68872 2.91992,-3.58789 0.57402,-0.20505 1.15082,-0.53391 1.71048,-0.10917 z m -37.55078,1.59961 c 1.1933,0.94254 1.23417,2.63594 1.65536,3.989736 1.00022,4.362323 2.01204,8.730289 2.71964,13.150888 0.013,0.645225 0.0853,1.477174 -0.57086,1.828208 -1.04664,0.983918 -2.6327,0.73669 -3.95491,0.864631 -1.91247,-0.01907 -3.88227,0.144787 -5.74571,-0.349089 -0.51195,-0.195708 -1.02167,-0.61402 -1.32268,-1.025584 -0.21566,-1.720724 0.46608,-3.378328 0.77592,-5.048646 0.99529,-4.10068 1.94218,-8.219463 3.1698,-12.257804 0.23946,-0.63901 0.74491,-1.29006 1.37711,-1.50414 0.61389,0.005 1.32213,-0.31758 1.77049,0.25722 l 0.0799,0.0601 z m -204.16797,-0.006 c 1.17661,0.91901 1.22729,2.58017 1.63667,3.91037 1.01625,4.391957 2.02855,8.792811 2.75005,13.243927 -0.006,0.637727 0.10845,1.45615 -0.55172,1.800414 -1.04622,1.001824 -2.64531,0.757394 -3.976,0.884612 -1.91324,-0.01739 -3.88372,0.145473 -5.74767,-0.349089 -0.5401,-0.161701 -0.89616,-0.634468 -1.3457,-0.949218 -0.17663,-1.883438 0.54305,-3.689051 0.88994,-5.514525 0.98267,-3.992869 1.88688,-8.013706 3.11006,-11.940551 0.22267,-0.60706 0.727,-1.14231 1.25617,-1.44917 0.64808,0.0471 1.41417,-0.29022 1.89458,0.30152 l 0.0805,0.0594 z m 342.71094,4.34375 c 1.508,-0.05522 3.15758,0.07978 4.30366,1.181214 4.59426,3.742554 7.05878,9.679062 7.08993,15.542617 0.0577,2.798263 -0.30922,5.614633 -1.31467,8.238293 -0.33472,0.973734 -0.71796,1.998121 -1.63175,2.569417 -0.45477,0.377282 -1.15078,-0.03346 -1.70903,0.0034 -0.73868,0.09058 -0.7559,-0.847263 -1.10338,-1.312267 -0.30868,-1.763425 0.063,-3.564818 0.0277,-5.344349 0.0537,-2.56759 -0.68545,-5.105326 -1.74041,-7.424205 -1.2705,-2.060665 -2.99545,-3.849056 -5.02596,-5.167685 -1.65274,-1.344486 -2.42081,-3.435006 -3.06601,-5.397745 -0.34893,-1.202575 0.55973,-2.450308 1.7539,-2.679688 0.79099,-0.19243 1.60721,-0.193411 2.41602,-0.208984 z m -482.314455,6.441406 c 1.365354,-0.0571 2.195811,1.261552 2.930017,2.22748 1.720066,2.359528 1.35488,5.419744 1.909864,8.140488 0.767326,4.198432 1.883714,8.457517 4.312555,12.030194 0.510535,0.73719 0.807041,1.649922 0.448148,2.513765 0.07042,0.789076 -0.594747,0.905483 -1.211204,1.066436 -0.700318,0.403075 -1.485963,0.03834 -2.092505,-0.374847 -2.138044,-1.779696 -3.752337,-4.109875 -5.214548,-6.455461 -2.32167,-3.92935 -4.000779,-8.315198 -4.4746,-12.872998 -0.194041,-2.135183 0.489528,-4.465023 2.159851,-5.872713 0.333856,-0.27285 0.802933,-0.414586 1.232422,-0.402344 z m 381.121095,0 c 1.36357,-0.05645 2.19081,1.260495 2.92677,2.223114 1.72274,2.359603 1.35747,5.422782 1.91307,8.14486 0.7623,4.163738 1.86046,8.391158 4.258,11.941258 0.49086,0.733771 0.88565,1.6353 0.52252,2.505085 0.0363,0.757896 -0.46116,1.027644 -1.13765,1.133698 -0.52686,0.262627 -1.05247,0.274044 -1.57787,0.0017 -1.50557,-0.783898 -2.5187,-2.250548 -3.58685,-3.53 -3.4994,-4.562816 -5.9298,-10.018927 -6.67522,-15.737645 -0.29329,-2.252301 0.33722,-4.762058 2.10918,-6.269971 0.33304,-0.290366 0.81392,-0.411056 1.24805,-0.41211 z" />
    </g>
  </g>
</svg>
