<?xml version="1.0" encoding="UTF-8" standalone="no"?>
<!-- Created with Inkscape (http://www.inkscape.org/) -->

<svg
   width="125"
   height="400"
   viewBox="0 0 33.072915 105.83333"
   version="1.1"
   id="svg5"
   xml:space="preserve"
   inkscape:version="1.2.2 (b0a8486541, 2022-12-01)"
   sodipodi:docname="Pause.svg"
   xmlns:inkscape="http://www.inkscape.org/namespaces/inkscape"
   xmlns:sodipodi="http://sodipodi.sourceforge.net/DTD/sodipodi-0.dtd"
   xmlns="http://www.w3.org/2000/svg"
   xmlns:svg="http://www.w3.org/2000/svg"><sodipodi:namedview
     id="namedview7"
     pagecolor="#3f2954"
     bordercolor="#000000"
     borderopacity="0.25"
     inkscape:showpageshadow="2"
     inkscape:pageopacity="0"
     inkscape:pagecheckerboard="0"
     inkscape:deskcolor="#d1d1d1"
     inkscape:document-units="mm"
     showgrid="false"
     inkscape:zoom="0.98898724"
     inkscape:cx="274.52326"
     inkscape:cy="205.76605"
     inkscape:window-width="1452"
     inkscape:window-height="991"
     inkscape:window-x="26"
     inkscape:window-y="23"
     inkscape:window-maximized="0"
     inkscape:current-layer="layer1" /><defs
     id="defs2"><symbol
       id="clef"
       viewBox="0 0 1000 1000"
       style="overflow:inherit"><path
         transform="scale(1,-1)"
         d="m 562,-21 c 0,89 -65,150 -155,150 7,-44 34,-203 55,-323 71,29 100,102 100,173 z M 420,-206 362,123 C 303,109 258,60 258,-1 c 0,-49 22,-75 61,-99 12,-8 22,-13 22,-22 0,-9 -9,-13 -17,-13 -80,0 -135,96 -135,166 0,94 62,190 153,217 -7,41 -14,88 -23,142 C 304,375 288,361 271,346 183,270 97,161 97,39 c 0,-151 122,-251 265,-251 19,0 38,2 58,6 z M 332,822 c -8,-31 -11,-65 -11,-102 0,-42 5,-81 11,-121 69,68 146,146 146,250 0,69 -24,118 -39,118 -52,0 -98,-105 -107,-145 z M 122,-513 c 0,66 45,123 115,123 75,0 116,-57 116,-111 0,-64 -47,-104 -94,-111 -3,-1 -5,-2 -5,-4 0,-1 2,-2 3,-3 2,0 23,-5 47,-5 101,0 154,55 154,159 0,53 -11,123 -30,219 -23,-4 -50,-7 -79,-7 -186,0 -349,147 -349,334 0,200 126,321 217,406 21,17 73,70 74,71 -17,112 -22,161 -22,215 0,84 18,212 82,288 33,39 64,51 71,51 18,0 47,-35 71,-86 16,-36 44,-110 44,-201 0,-159 -73,-284 -179,-395 9,-56 19,-115 29,-175 146,0 253,-102 253,-253 0,-103 -73,-205 -171,-237 6,-39 12,-69 15,-89 10,-57 16,-102 16,-141 0,-63 -14,-129 -68,-167 -36,-22 -77,-34 -124,-34 -135,0 -186,87 -186,153 z"
         id="path1775" /></symbol><symbol
       id="offset"
       viewBox="0 0 1000 1000"
       style="overflow:inherit"><path
         transform="scale(1,-1)"
         d="m 201,79 c 1,-8 2,-16 2,-25 0,-41 -15,-90 -53,-133 -54,-61 -119,-93 -123,-95 -2,-1 -6,-2 -8,-2 -8,0 -14,6 -14,14 L 0,439 c 0,8 6,14 14,14 h 12 c 8,0 14,-6 14,-14 L 36,118 c 5,6 34,37 84,37 51,0 75,-37 81,-76 z M 132,40 v 11 c 0,21 -3,55 -39,55 C 53,106 38,77 36,68 l -3,-195 c 19,15 53,42 70,68 25,38 29,84 29,99 z"
         id="path1778" /></symbol><symbol
       id="clef-5"
       viewBox="0 0 1000 1000"
       style="overflow:inherit"><path
         transform="scale(1,-1)"
         d="m 562,-21 c 0,89 -65,150 -155,150 7,-44 34,-203 55,-323 71,29 100,102 100,173 z M 420,-206 362,123 C 303,109 258,60 258,-1 c 0,-49 22,-75 61,-99 12,-8 22,-13 22,-22 0,-9 -9,-13 -17,-13 -80,0 -135,96 -135,166 0,94 62,190 153,217 -7,41 -14,88 -23,142 C 304,375 288,361 271,346 183,270 97,161 97,39 c 0,-151 122,-251 265,-251 19,0 38,2 58,6 z M 332,822 c -8,-31 -11,-65 -11,-102 0,-42 5,-81 11,-121 69,68 146,146 146,250 0,69 -24,118 -39,118 -52,0 -98,-105 -107,-145 z M 122,-513 c 0,66 45,123 115,123 75,0 116,-57 116,-111 0,-64 -47,-104 -94,-111 -3,-1 -5,-2 -5,-4 0,-1 2,-2 3,-3 2,0 23,-5 47,-5 101,0 154,55 154,159 0,53 -11,123 -30,219 -23,-4 -50,-7 -79,-7 -186,0 -349,147 -349,334 0,200 126,321 217,406 21,17 73,70 74,71 -17,112 -22,161 -22,215 0,84 18,212 82,288 33,39 64,51 71,51 18,0 47,-35 71,-86 16,-36 44,-110 44,-201 0,-159 -73,-284 -179,-395 9,-56 19,-115 29,-175 146,0 253,-102 253,-253 0,-103 -73,-205 -171,-237 6,-39 12,-69 15,-89 10,-57 16,-102 16,-141 0,-63 -14,-129 -68,-167 -36,-22 -77,-34 -124,-34 -135,0 -186,87 -186,153 z"
         id="path1775-3" /></symbol><symbol
       id="offset-5"
       viewBox="0 0 1000 1000"
       style="overflow:inherit"><path
         transform="scale(1,-1)"
         d="m 201,79 c 1,-8 2,-16 2,-25 0,-41 -15,-90 -53,-133 -54,-61 -119,-93 -123,-95 -2,-1 -6,-2 -8,-2 -8,0 -14,6 -14,14 L 0,439 c 0,8 6,14 14,14 h 12 c 8,0 14,-6 14,-14 L 36,118 c 5,6 34,37 84,37 51,0 75,-37 81,-76 z M 132,40 v 11 c 0,21 -3,55 -39,55 C 53,106 38,77 36,68 l -3,-195 c 19,15 53,42 70,68 25,38 29,84 29,99 z"
         id="path1778-6" /></symbol><inkscape:perspective
       sodipodi:type="inkscape:persp3d"
       inkscape:vp_x="0 : 30.096807 : 1"
       inkscape:vp_y="0 : 1000 : 0"
       inkscape:vp_z="574.5 : 30.096807 : 1"
       inkscape:persp3d-origin="287.25 : 20.064538 : 1"
       id="perspective58" /><inkscape:perspective
       id="perspective2543"
       inkscape:persp3d-origin="372.04724 : 350.78739 : 1"
       inkscape:vp_z="744.09448 : 526.18109 : 1"
       inkscape:vp_y="0 : 1000 : 0"
       inkscape:vp_x="0 : 526.18109 : 1"
       sodipodi:type="inkscape:persp3d" /></defs><g
     inkscape:label="Layer 1"
     inkscape:groupmode="layer"
     id="layer1"><g
       id="g124"
       style="fill:#ffffff;fill-opacity:1;fill-rule:evenodd;stroke:#979797;stroke-width:0.253539;stroke-linecap:butt;stroke-linejoin:round;stroke-miterlimit:10;stroke-dasharray:none;stroke-opacity:1"
       transform="matrix(1.8356236,0,0,1.8356236,-925.4904,-92.32672)"><path
         id="path126"
         style="fill:#ffffff;fill-opacity:1;stroke:#979797;stroke-width:0.253539;stroke-dasharray:none;stroke-opacity:1"
         d="m 512.254,71.019 c -0.137,0.058 -0.219,0.258 -0.156,0.398 0.019,0.02 0.218,0.258 0.418,0.52 0.457,0.515 0.535,0.637 0.636,0.875 0.399,0.816 0.18,1.855 -0.519,2.512 -0.059,0.078 -0.317,0.296 -0.559,0.476 -0.695,0.598 -1.015,0.938 -1.133,1.238 -0.043,0.079 -0.043,0.157 -0.043,0.278 -0.019,0.277 0,0.301 0.821,1.254 1.113,1.336 1.91,2.273 1.972,2.332 l 0.059,0.058 -0.078,-0.039 c -1.098,-0.457 -2.332,-0.676 -2.75,-0.476 -0.141,0.058 -0.223,0.14 -0.281,0.277 -0.161,0.34 -0.118,0.84 0.121,1.574 0.218,0.66 0.656,1.535 1.093,2.192 0.18,0.281 0.52,0.718 0.559,0.738 0.059,0.059 0.141,0.039 0.199,0 0.059,-0.078 0.059,-0.141 -0.058,-0.277 -0.418,-0.598 -0.617,-1.836 -0.379,-2.493 0.097,-0.296 0.219,-0.457 0.437,-0.558 0.578,-0.258 1.856,0.062 2.391,0.597 0.039,0.04 0.121,0.122 0.16,0.141 0.141,0.059 0.34,-0.019 0.399,-0.16 0.082,-0.141 0.039,-0.238 -0.141,-0.457 -0.336,-0.399 -1.352,-1.594 -1.492,-1.774 -0.36,-0.418 -0.52,-0.816 -0.559,-1.316 -0.019,-0.637 0.238,-1.312 0.719,-1.754 0.058,-0.078 0.316,-0.297 0.555,-0.476 0.738,-0.618 1.039,-0.957 1.156,-1.278 0.082,-0.258 0.043,-0.496 -0.137,-0.715 -0.062,-0.058 -0.758,-0.918 -1.574,-1.894 -1.117,-1.313 -1.516,-1.793 -1.574,-1.813 -0.082,-0.019 -0.18,-0.019 -0.262,0.02 z" /></g></g></svg>
