<?xml version="1.0" encoding="UTF-8" standalone="no"?>
<!-- Created with Inkscape (http://www.inkscape.org/) -->

<svg
   width="125"
   height="400"
   viewBox="0 0 33.072915 105.83333"
   version="1.1"
   id="svg5"
   xml:space="preserve"
   inkscape:version="1.2.2 (b0a8486541, 2022-12-01)"
   sodipodi:docname="C4.svg"
   xmlns:inkscape="http://www.inkscape.org/namespaces/inkscape"
   xmlns:sodipodi="http://sodipodi.sourceforge.net/DTD/sodipodi-0.dtd"
   xmlns="http://www.w3.org/2000/svg"
   xmlns:svg="http://www.w3.org/2000/svg"><sodipodi:namedview
     id="namedview7"
     pagecolor="#3f2954"
     bordercolor="#000000"
     borderopacity="0.25"
     inkscape:showpageshadow="2"
     inkscape:pageopacity="0"
     inkscape:pagecheckerboard="0"
     inkscape:deskcolor="#d1d1d1"
     inkscape:document-units="mm"
     showgrid="false"
     inkscape:zoom="0.98898724"
     inkscape:cx="-198.6881"
     inkscape:cy="205.76605"
     inkscape:window-width="1452"
     inkscape:window-height="991"
     inkscape:window-x="26"
     inkscape:window-y="23"
     inkscape:window-maximized="0"
     inkscape:current-layer="layer1" /><defs
     id="defs2"><symbol
       id="clef"
       viewBox="0 0 1000 1000"
       style="overflow:inherit"><path
         transform="scale(1,-1)"
         d="m 562,-21 c 0,89 -65,150 -155,150 7,-44 34,-203 55,-323 71,29 100,102 100,173 z M 420,-206 362,123 C 303,109 258,60 258,-1 c 0,-49 22,-75 61,-99 12,-8 22,-13 22,-22 0,-9 -9,-13 -17,-13 -80,0 -135,96 -135,166 0,94 62,190 153,217 -7,41 -14,88 -23,142 C 304,375 288,361 271,346 183,270 97,161 97,39 c 0,-151 122,-251 265,-251 19,0 38,2 58,6 z M 332,822 c -8,-31 -11,-65 -11,-102 0,-42 5,-81 11,-121 69,68 146,146 146,250 0,69 -24,118 -39,118 -52,0 -98,-105 -107,-145 z M 122,-513 c 0,66 45,123 115,123 75,0 116,-57 116,-111 0,-64 -47,-104 -94,-111 -3,-1 -5,-2 -5,-4 0,-1 2,-2 3,-3 2,0 23,-5 47,-5 101,0 154,55 154,159 0,53 -11,123 -30,219 -23,-4 -50,-7 -79,-7 -186,0 -349,147 -349,334 0,200 126,321 217,406 21,17 73,70 74,71 -17,112 -22,161 -22,215 0,84 18,212 82,288 33,39 64,51 71,51 18,0 47,-35 71,-86 16,-36 44,-110 44,-201 0,-159 -73,-284 -179,-395 9,-56 19,-115 29,-175 146,0 253,-102 253,-253 0,-103 -73,-205 -171,-237 6,-39 12,-69 15,-89 10,-57 16,-102 16,-141 0,-63 -14,-129 -68,-167 -36,-22 -77,-34 -124,-34 -135,0 -186,87 -186,153 z"
         id="path1775" /></symbol><symbol
       id="offset"
       viewBox="0 0 1000 1000"
       style="overflow:inherit"><path
         transform="scale(1,-1)"
         d="m 201,79 c 1,-8 2,-16 2,-25 0,-41 -15,-90 -53,-133 -54,-61 -119,-93 -123,-95 -2,-1 -6,-2 -8,-2 -8,0 -14,6 -14,14 L 0,439 c 0,8 6,14 14,14 h 12 c 8,0 14,-6 14,-14 L 36,118 c 5,6 34,37 84,37 51,0 75,-37 81,-76 z M 132,40 v 11 c 0,21 -3,55 -39,55 C 53,106 38,77 36,68 l -3,-195 c 19,15 53,42 70,68 25,38 29,84 29,99 z"
         id="path1778" /></symbol></defs><g
     inkscape:label="Layer 1"
     inkscape:groupmode="layer"
     id="layer1"><g
       id="g7163"
       transform="matrix(0.01343279,0,0,0.05148328,2.1252745,33.117539)"
       style="fill:#ffffff;fill-opacity:1;stroke:#979797;stroke-width:9.68464;stroke-linecap:round;stroke-linejoin:round;stroke-dasharray:none;stroke-opacity:1"><path
         style="color:#000000;fill:#ffffff;fill-opacity:1;stroke:#979797;stroke-width:9.68464;stroke-linecap:round;stroke-linejoin:round;stroke-dasharray:none;stroke-opacity:1"
         d="M 0,900 H 1720"
         id="path7159" /><path
         style="color:#000000;fill:#ffffff;fill-opacity:1;stroke:#979797;stroke-width:9.68464;stroke-linecap:round;stroke-linejoin:round;stroke-dasharray:none;stroke-opacity:1"
         d="m 0,890 v 20 h 1720 v -20 z"
         id="path7161" /></g><g
       id="g7182"
       transform="translate(-39.687519,17.991672)"><path
         d="m 48.52515,65.415193 c -2.606151,-2.373454 -1.16346,-6.143057 3.11807,-8.376896 1.442673,-0.698075 2.513069,-1.023843 4.374596,-0.977305 1.163461,0.04654 2.466528,0.698075 2.466528,0.698075 0,-8.423434 -0.04661,-24.339538 -0.04661,-32.157974 0.465377,0 0.791148,-0.04654 1.442691,-0.04654 0,0.465385 0,0.83769 0,1.209997 0,0.418845 0,0.651537 0.04661,0.930767 0.465377,2.931914 1.11692,4.095371 4.374596,7.678822 4.141907,4.607293 5.351909,7.353052 5.351909,11.02958 -0.04661,3.443834 -3.071529,10.796888 -3.723071,10.517658 0.930772,-2.606146 2.233839,-5.398445 2.55961,-7.725359 0.418854,-2.838838 -0.744607,-6.841132 -2.606151,-8.935356 -1.489215,-1.768457 -5.026138,-3.304221 -6.003434,-3.304221 0,0 -0.04661,16.939945 -0.04661,23.362233 0,1.070381 -0.977313,2.978453 -1.535773,3.629988 -2.559592,3.071529 -7.539207,4.467678 -9.773046,2.466531 z"
         id="path4837"
         style="fill:#d75555;fill-opacity:1;stroke:#dc8686;stroke-width:0.465383;stroke-opacity:1" /><g
         aria-label="C4"
         transform="skewY(-15.744794)"
         id="text6352"
         style="font-size:6.72166px;font-family:'DM Serif Display';-inkscape-font-specification:'DM Serif Display';fill:#ffffff;stroke-width:1.12028;stroke-linecap:round;stroke-linejoin:round"><path
           d="m 52.093722,78.533481 q -0.652001,0 -1.183012,-0.262145 -0.52429,-0.268866 -0.833486,-0.793156 -0.309196,-0.524289 -0.309196,-1.283837 0,-0.578063 0.188206,-1.014971 0.188207,-0.436908 0.510846,-0.732661 0.329362,-0.295753 0.752826,-0.443629 0.430187,-0.147877 0.907424,-0.147877 0.383135,0 0.705775,0.08738 0.322639,0.08738 0.604949,0.24198 l 0.02689,0.826764 h -0.06722 l -0.336083,-0.537733 q -0.06722,-0.127712 -0.147876,-0.228536 -0.08066,-0.107547 -0.20165,-0.16132 -0.100825,-0.04705 -0.20165,-0.06722 -0.0941,-0.02689 -0.24198,-0.02689 -0.389856,0 -0.712496,0.208372 -0.315918,0.208371 -0.510846,0.692331 -0.188206,0.477238 -0.188206,1.310724 0,0.826764 0.181484,1.310723 0.181485,0.477238 0.490682,0.68561 0.315918,0.20165 0.705774,0.20165 0.215093,0 0.342805,-0.02689 0.127711,-0.03361 0.255423,-0.0941 0.127711,-0.05377 0.194928,-0.154599 0.06722,-0.107546 0.12099,-0.228536 L 53.444776,77.2362 h 0.06722 l -0.02016,0.961198 q -0.282309,0.147876 -0.631836,0.241979 -0.349526,0.0941 -0.766269,0.0941 z"
           id="path6718" /><path
           d="M 55.615876,78.412491 V 77.323582 H 53.84808 v -0.383135 l 1.969446,-2.843262 h 0.658723 v 2.728994 h 0.638558 v 0.497403 h -0.638558 v 1.088909 z m -1.472043,-1.586312 h 1.472043 v -2.117323 z"
           id="path6720" /></g></g></g></svg>
