<?xml version="1.0" encoding="UTF-8" standalone="no"?>
<!-- Created with Inkscape (http://www.inkscape.org/) -->

<svg
   width="125"
   height="400"
   viewBox="0 0 33.072915 105.83333"
   version="1.1"
   id="svg5"
   xml:space="preserve"
   inkscape:version="1.2.2 (b0a8486541, 2022-12-01)"
   sodipodi:docname="F4.svg"
   xmlns:inkscape="http://www.inkscape.org/namespaces/inkscape"
   xmlns:sodipodi="http://sodipodi.sourceforge.net/DTD/sodipodi-0.dtd"
   xmlns="http://www.w3.org/2000/svg"
   xmlns:svg="http://www.w3.org/2000/svg"><sodipodi:namedview
     id="namedview7"
     pagecolor="#3f2954"
     bordercolor="#000000"
     borderopacity="0.25"
     inkscape:showpageshadow="2"
     inkscape:pageopacity="0"
     inkscape:pagecheckerboard="0"
     inkscape:deskcolor="#d1d1d1"
     inkscape:document-units="mm"
     showgrid="false"
     inkscape:zoom="0.49449362"
     inkscape:cx="-633.98189"
     inkscape:cy="425.688"
     inkscape:window-width="1452"
     inkscape:window-height="991"
     inkscape:window-x="26"
     inkscape:window-y="23"
     inkscape:window-maximized="0"
     inkscape:current-layer="layer1" /><defs
     id="defs2"><symbol
       id="clef"
       viewBox="0 0 1000 1000"
       style="overflow:inherit"><path
         transform="scale(1,-1)"
         d="m 562,-21 c 0,89 -65,150 -155,150 7,-44 34,-203 55,-323 71,29 100,102 100,173 z M 420,-206 362,123 C 303,109 258,60 258,-1 c 0,-49 22,-75 61,-99 12,-8 22,-13 22,-22 0,-9 -9,-13 -17,-13 -80,0 -135,96 -135,166 0,94 62,190 153,217 -7,41 -14,88 -23,142 C 304,375 288,361 271,346 183,270 97,161 97,39 c 0,-151 122,-251 265,-251 19,0 38,2 58,6 z M 332,822 c -8,-31 -11,-65 -11,-102 0,-42 5,-81 11,-121 69,68 146,146 146,250 0,69 -24,118 -39,118 -52,0 -98,-105 -107,-145 z M 122,-513 c 0,66 45,123 115,123 75,0 116,-57 116,-111 0,-64 -47,-104 -94,-111 -3,-1 -5,-2 -5,-4 0,-1 2,-2 3,-3 2,0 23,-5 47,-5 101,0 154,55 154,159 0,53 -11,123 -30,219 -23,-4 -50,-7 -79,-7 -186,0 -349,147 -349,334 0,200 126,321 217,406 21,17 73,70 74,71 -17,112 -22,161 -22,215 0,84 18,212 82,288 33,39 64,51 71,51 18,0 47,-35 71,-86 16,-36 44,-110 44,-201 0,-159 -73,-284 -179,-395 9,-56 19,-115 29,-175 146,0 253,-102 253,-253 0,-103 -73,-205 -171,-237 6,-39 12,-69 15,-89 10,-57 16,-102 16,-141 0,-63 -14,-129 -68,-167 -36,-22 -77,-34 -124,-34 -135,0 -186,87 -186,153 z"
         id="path1775" /></symbol><symbol
       id="offset"
       viewBox="0 0 1000 1000"
       style="overflow:inherit"><path
         transform="scale(1,-1)"
         d="m 201,79 c 1,-8 2,-16 2,-25 0,-41 -15,-90 -53,-133 -54,-61 -119,-93 -123,-95 -2,-1 -6,-2 -8,-2 -8,0 -14,6 -14,14 L 0,439 c 0,8 6,14 14,14 h 12 c 8,0 14,-6 14,-14 L 36,118 c 5,6 34,37 84,37 51,0 75,-37 81,-76 z M 132,40 v 11 c 0,21 -3,55 -39,55 C 53,106 38,77 36,68 l -3,-195 c 19,15 53,42 70,68 25,38 29,84 29,99 z"
         id="path1778" /></symbol><symbol
       id="clef-7"
       viewBox="0 0 1000 1000"
       style="overflow:inherit"><path
         transform="scale(1,-1)"
         d="m 562,-21 c 0,89 -65,150 -155,150 7,-44 34,-203 55,-323 71,29 100,102 100,173 z M 420,-206 362,123 C 303,109 258,60 258,-1 c 0,-49 22,-75 61,-99 12,-8 22,-13 22,-22 0,-9 -9,-13 -17,-13 -80,0 -135,96 -135,166 0,94 62,190 153,217 -7,41 -14,88 -23,142 C 304,375 288,361 271,346 183,270 97,161 97,39 c 0,-151 122,-251 265,-251 19,0 38,2 58,6 z M 332,822 c -8,-31 -11,-65 -11,-102 0,-42 5,-81 11,-121 69,68 146,146 146,250 0,69 -24,118 -39,118 -52,0 -98,-105 -107,-145 z M 122,-513 c 0,66 45,123 115,123 75,0 116,-57 116,-111 0,-64 -47,-104 -94,-111 -3,-1 -5,-2 -5,-4 0,-1 2,-2 3,-3 2,0 23,-5 47,-5 101,0 154,55 154,159 0,53 -11,123 -30,219 -23,-4 -50,-7 -79,-7 -186,0 -349,147 -349,334 0,200 126,321 217,406 21,17 73,70 74,71 -17,112 -22,161 -22,215 0,84 18,212 82,288 33,39 64,51 71,51 18,0 47,-35 71,-86 16,-36 44,-110 44,-201 0,-159 -73,-284 -179,-395 9,-56 19,-115 29,-175 146,0 253,-102 253,-253 0,-103 -73,-205 -171,-237 6,-39 12,-69 15,-89 10,-57 16,-102 16,-141 0,-63 -14,-129 -68,-167 -36,-22 -77,-34 -124,-34 -135,0 -186,87 -186,153 z"
         id="path1775-0" /></symbol><symbol
       id="offset-9"
       viewBox="0 0 1000 1000"
       style="overflow:inherit"><path
         transform="scale(1,-1)"
         d="m 201,79 c 1,-8 2,-16 2,-25 0,-41 -15,-90 -53,-133 -54,-61 -119,-93 -123,-95 -2,-1 -6,-2 -8,-2 -8,0 -14,6 -14,14 L 0,439 c 0,8 6,14 14,14 h 12 c 8,0 14,-6 14,-14 L 36,118 c 5,6 34,37 84,37 51,0 75,-37 81,-76 z M 132,40 v 11 c 0,21 -3,55 -39,55 C 53,106 38,77 36,68 l -3,-195 c 19,15 53,42 70,68 25,38 29,84 29,99 z"
         id="path1778-3" /></symbol><symbol
       id="clef-2"
       viewBox="0 0 1000 1000"
       style="overflow:inherit"><path
         transform="scale(1,-1)"
         d="m 562,-21 c 0,89 -65,150 -155,150 7,-44 34,-203 55,-323 71,29 100,102 100,173 z M 420,-206 362,123 C 303,109 258,60 258,-1 c 0,-49 22,-75 61,-99 12,-8 22,-13 22,-22 0,-9 -9,-13 -17,-13 -80,0 -135,96 -135,166 0,94 62,190 153,217 -7,41 -14,88 -23,142 C 304,375 288,361 271,346 183,270 97,161 97,39 c 0,-151 122,-251 265,-251 19,0 38,2 58,6 z M 332,822 c -8,-31 -11,-65 -11,-102 0,-42 5,-81 11,-121 69,68 146,146 146,250 0,69 -24,118 -39,118 -52,0 -98,-105 -107,-145 z M 122,-513 c 0,66 45,123 115,123 75,0 116,-57 116,-111 0,-64 -47,-104 -94,-111 -3,-1 -5,-2 -5,-4 0,-1 2,-2 3,-3 2,0 23,-5 47,-5 101,0 154,55 154,159 0,53 -11,123 -30,219 -23,-4 -50,-7 -79,-7 -186,0 -349,147 -349,334 0,200 126,321 217,406 21,17 73,70 74,71 -17,112 -22,161 -22,215 0,84 18,212 82,288 33,39 64,51 71,51 18,0 47,-35 71,-86 16,-36 44,-110 44,-201 0,-159 -73,-284 -179,-395 9,-56 19,-115 29,-175 146,0 253,-102 253,-253 0,-103 -73,-205 -171,-237 6,-39 12,-69 15,-89 10,-57 16,-102 16,-141 0,-63 -14,-129 -68,-167 -36,-22 -77,-34 -124,-34 -135,0 -186,87 -186,153 z"
         id="path1775-3" /></symbol><symbol
       id="offset-7"
       viewBox="0 0 1000 1000"
       style="overflow:inherit"><path
         transform="scale(1,-1)"
         d="m 201,79 c 1,-8 2,-16 2,-25 0,-41 -15,-90 -53,-133 -54,-61 -119,-93 -123,-95 -2,-1 -6,-2 -8,-2 -8,0 -14,6 -14,14 L 0,439 c 0,8 6,14 14,14 h 12 c 8,0 14,-6 14,-14 L 36,118 c 5,6 34,37 84,37 51,0 75,-37 81,-76 z M 132,40 v 11 c 0,21 -3,55 -39,55 C 53,106 38,77 36,68 l -3,-195 c 19,15 53,42 70,68 25,38 29,84 29,99 z"
         id="path1778-5" /></symbol><symbol
       id="clef-9"
       viewBox="0 0 1000 1000"
       style="overflow:inherit"><path
         transform="scale(1,-1)"
         d="m 562,-21 c 0,89 -65,150 -155,150 7,-44 34,-203 55,-323 71,29 100,102 100,173 z M 420,-206 362,123 C 303,109 258,60 258,-1 c 0,-49 22,-75 61,-99 12,-8 22,-13 22,-22 0,-9 -9,-13 -17,-13 -80,0 -135,96 -135,166 0,94 62,190 153,217 -7,41 -14,88 -23,142 C 304,375 288,361 271,346 183,270 97,161 97,39 c 0,-151 122,-251 265,-251 19,0 38,2 58,6 z M 332,822 c -8,-31 -11,-65 -11,-102 0,-42 5,-81 11,-121 69,68 146,146 146,250 0,69 -24,118 -39,118 -52,0 -98,-105 -107,-145 z M 122,-513 c 0,66 45,123 115,123 75,0 116,-57 116,-111 0,-64 -47,-104 -94,-111 -3,-1 -5,-2 -5,-4 0,-1 2,-2 3,-3 2,0 23,-5 47,-5 101,0 154,55 154,159 0,53 -11,123 -30,219 -23,-4 -50,-7 -79,-7 -186,0 -349,147 -349,334 0,200 126,321 217,406 21,17 73,70 74,71 -17,112 -22,161 -22,215 0,84 18,212 82,288 33,39 64,51 71,51 18,0 47,-35 71,-86 16,-36 44,-110 44,-201 0,-159 -73,-284 -179,-395 9,-56 19,-115 29,-175 146,0 253,-102 253,-253 0,-103 -73,-205 -171,-237 6,-39 12,-69 15,-89 10,-57 16,-102 16,-141 0,-63 -14,-129 -68,-167 -36,-22 -77,-34 -124,-34 -135,0 -186,87 -186,153 z"
         id="path1775-7" /></symbol><symbol
       id="offset-3"
       viewBox="0 0 1000 1000"
       style="overflow:inherit"><path
         transform="scale(1,-1)"
         d="m 201,79 c 1,-8 2,-16 2,-25 0,-41 -15,-90 -53,-133 -54,-61 -119,-93 -123,-95 -2,-1 -6,-2 -8,-2 -8,0 -14,6 -14,14 L 0,439 c 0,8 6,14 14,14 h 12 c 8,0 14,-6 14,-14 L 36,118 c 5,6 34,37 84,37 51,0 75,-37 81,-76 z M 132,40 v 11 c 0,21 -3,55 -39,55 C 53,106 38,77 36,68 l -3,-195 c 19,15 53,42 70,68 25,38 29,84 29,99 z"
         id="path1778-6" /></symbol><symbol
       id="clef-1"
       viewBox="0 0 1000 1000"
       style="overflow:inherit"><path
         transform="scale(1,-1)"
         d="m 562,-21 c 0,89 -65,150 -155,150 7,-44 34,-203 55,-323 71,29 100,102 100,173 z M 420,-206 362,123 C 303,109 258,60 258,-1 c 0,-49 22,-75 61,-99 12,-8 22,-13 22,-22 0,-9 -9,-13 -17,-13 -80,0 -135,96 -135,166 0,94 62,190 153,217 -7,41 -14,88 -23,142 C 304,375 288,361 271,346 183,270 97,161 97,39 c 0,-151 122,-251 265,-251 19,0 38,2 58,6 z M 332,822 c -8,-31 -11,-65 -11,-102 0,-42 5,-81 11,-121 69,68 146,146 146,250 0,69 -24,118 -39,118 -52,0 -98,-105 -107,-145 z M 122,-513 c 0,66 45,123 115,123 75,0 116,-57 116,-111 0,-64 -47,-104 -94,-111 -3,-1 -5,-2 -5,-4 0,-1 2,-2 3,-3 2,0 23,-5 47,-5 101,0 154,55 154,159 0,53 -11,123 -30,219 -23,-4 -50,-7 -79,-7 -186,0 -349,147 -349,334 0,200 126,321 217,406 21,17 73,70 74,71 -17,112 -22,161 -22,215 0,84 18,212 82,288 33,39 64,51 71,51 18,0 47,-35 71,-86 16,-36 44,-110 44,-201 0,-159 -73,-284 -179,-395 9,-56 19,-115 29,-175 146,0 253,-102 253,-253 0,-103 -73,-205 -171,-237 6,-39 12,-69 15,-89 10,-57 16,-102 16,-141 0,-63 -14,-129 -68,-167 -36,-22 -77,-34 -124,-34 -135,0 -186,87 -186,153 z"
         id="path1775-9" /></symbol><symbol
       id="offset-4"
       viewBox="0 0 1000 1000"
       style="overflow:inherit"><path
         transform="scale(1,-1)"
         d="m 201,79 c 1,-8 2,-16 2,-25 0,-41 -15,-90 -53,-133 -54,-61 -119,-93 -123,-95 -2,-1 -6,-2 -8,-2 -8,0 -14,6 -14,14 L 0,439 c 0,8 6,14 14,14 h 12 c 8,0 14,-6 14,-14 L 36,118 c 5,6 34,37 84,37 51,0 75,-37 81,-76 z M 132,40 v 11 c 0,21 -3,55 -39,55 C 53,106 38,77 36,68 l -3,-195 c 19,15 53,42 70,68 25,38 29,84 29,99 z"
         id="path1778-7" /></symbol></defs><g
     inkscape:label="Layer 1"
     inkscape:groupmode="layer"
     id="layer1"><g
       id="g7182"
       transform="translate(-41.31398,7.9375002)"><path
         d="m 48.52515,61.711024 c -2.606151,-2.373454 -1.16346,-6.143057 3.11807,-8.376896 1.442673,-0.698075 2.513069,-1.023843 4.374596,-0.977305 1.163461,0.04654 2.466528,0.698075 2.466528,0.698075 0,-8.423434 -0.04661,-24.339538 -0.04661,-32.157974 0.465377,0 0.791148,-0.04654 1.442691,-0.04654 0,0.465385 0,0.83769 0,1.209997 0,0.418845 0,0.651537 0.04661,0.930767 0.465377,2.931914 1.11692,4.095371 4.374596,7.678822 4.141907,4.607293 5.351909,7.353052 5.351909,11.02958 -0.04661,3.443834 -3.071529,10.796888 -3.723071,10.517658 0.930772,-2.606146 2.233839,-5.398445 2.55961,-7.725359 0.418854,-2.838838 -0.744607,-6.841132 -2.606151,-8.935356 -1.489215,-1.768457 -5.026138,-3.304221 -6.003434,-3.304221 0,0 -0.04661,16.939945 -0.04661,23.362233 0,1.070381 -0.977313,2.978453 -1.535773,3.629988 -2.559592,3.071529 -7.539207,4.467678 -9.773046,2.466531 z"
         id="path4837"
         style="fill:#78d755;fill-opacity:1;stroke:#8fdc86;stroke-width:0.465383;stroke-opacity:1" /><g
         aria-label="F4"
         transform="skewY(-15.744794)"
         id="text6352"
         style="font-size:6.72166px;font-family:'DM Serif Display';-inkscape-font-specification:'DM Serif Display';fill:#ffffff;stroke-width:1.12028;stroke-linecap:round;stroke-linejoin:round"><path
           d="m 49.781471,74.708321 v -0.06722 l 0.12099,-0.04033 q 0.134433,-0.04705 0.181485,-0.127711 0.04705,-0.08066 0.04705,-0.215094 0.0067,-0.403299 0.0067,-0.81332 0,-0.410022 0,-0.820043 V 72.35574 q 0,-0.4033 0,-0.8066 0,-0.410021 -0.0067,-0.813321 0,-0.134433 -0.04033,-0.215093 -0.03361,-0.08066 -0.161319,-0.127711 l -0.147877,-0.05377 v -0.06722 h 3.253284 l 0.04705,1.115796 h -0.06722 l -0.383135,-0.705775 q -0.06722,-0.127711 -0.154598,-0.20165 -0.08738,-0.07394 -0.24198,-0.07394 H 51.15269 q -0.0067,0.477238 -0.0067,0.974641 0,0.497403 0,0.988084 h 0.699053 q 0.154598,0 0.228536,-0.06722 0.07394,-0.06722 0.141155,-0.194928 l 0.141155,-0.255423 h 0.06722 v 1.176291 h -0.06722 L 52.20799,72.772482 q -0.06722,-0.120989 -0.141155,-0.194928 -0.06722,-0.07394 -0.221814,-0.07394 h -0.699053 q 0,0.470516 0,0.900703 0,0.423464 0.0067,0.833485 0,0.262145 0.255423,0.342805 l 0.20165,0.0605 v 0.06722 z"
           id="path13358" /><path
           d="m 55.178965,74.708321 v -1.088909 h -1.767797 v -0.383135 l 1.969447,-2.843262 h 0.658722 v 2.728994 h 0.638558 v 0.497403 h -0.638558 v 1.088909 z m -1.472044,-1.586312 h 1.472044 v -2.117323 z"
           id="path13360" /></g></g></g></svg>
